<ttFont>
          <CharString index="0">
            132 243 rmoveto
            111 62 75 78 40 37 -14 -37 41 vhcurveto
            -254 vlineto
            -45 -40 -39 -22 -45 hhcurveto
            -85 -49 70 116 hvcurveto
            -85 -1 rmoveto
            -162 79 235 callgsubr
            52 32 37 38 vhcurveto
            3 hlineto
            return
          </CharString>
          <CharString index="1">
            183 callsubr
            106 -93 119 119 106 93 161 163 -106 93 -119 -119 -106 -93 -163 vhcurveto
            85 hmoveto
            112 57 76 83 84 56 -76 -112 -111 -56 -75 -84 -83 -57 75 111 vhcurveto
            return
          </CharString>
          <CharString index="2">
            rmoveto
            31 100 24 73 21 72 20 76 rlinecurve
            4 hlineto
            21 -76 21 -72 24 -73 31 -100 rcurveline
            83 -267 rmoveto
            89 hlineto
            -222 656 rlineto
            -94 hlineto
            -222 -656 rlineto
            85 hlineto
            63 200 rlineto
            239 hlineto
            endchar
          </CharString>
          <CharString index="3">
            7 -58 rlineto
            68 298 hlineto
            121 -50 79 -119 -78 -68 -34 -29 -45 vhcurveto
            33 -57 rlineto
            26 38 50 26 57 hhcurveto
            79 21 -60 -62 hvcurveto
            return
          </CharString>
          <CharString index="4">
            87 271 rmoveto
            -211 102 -72 134 134 101 72 211 vhcurveto
            385 -80 -387 vlineto
            -158 -68 -50 -87 -86 -67 50 158 vhcurveto
            387 -83 vlineto
            return
          </CharString>
          <CharString index="5">
            -7 -45 rlineto
            -2 hlineto
            37 -41 -40 20 -55 hhcurveto
            -110 -101 -96 -152 -153 78 235 callgsubr
            50 29 36 37 hvcurveto
            -1 -92 rlineto
            -78 -3 -42 -50 -89 hhcurveto
            -46 -50 13 32 -48 hvcurveto
            153 178 rmoveto
            -85 -49 69 109 104 62 74 78 40 37 -14 -37 42 hvcurveto
            -238 vlineto
            -45 -42 -38 -22 -45 hhcurveto
            return
          </CharString>
          <CharString index="6">
            42 63 rmoveto
            -44 49 69 -31 83 hhcurveto
            119 74 65 86 87 -54 29 -76 29 hvcurveto
            -66 26 rlineto
            -53 21 -32 19 41 vvcurveto
            46 37 27 59 51 44 -21 -30 35 vhcurveto
            43 54 rlineto
            33 -38 -58 30 -76 hhcurveto
            -105 -75 -57 -86 -75 59 -39 71 -27 hvcurveto
            65 -26 rlineto
            48 -20 37 -17 -50 vvcurveto
            -47 -38 -32 -68 -61 -55 26 40 -44 vhcurveto
            return
          </CharString>
          <CharString index="7">
            52 328 rmoveto
            -214 123 -126 172 88 72 32 44 43 vhcurveto
            276 -215 -69 139 -171 vlineto
            -24 -26 -45 -15 -47 hhcurveto
            -140 -78 104 165 163 85 102 132 66 41 -26 -35 33 hvcurveto
            47 53 rlineto
            40 -38 -60 41 -90 hhcurveto
            -175 -127 169 callsubr
            return
          </CharString>
          <CharString index="8">
            52 258 rmoveto
            -173 107 -97 148 75 63 25 34 38 vhcurveto
            226 -188 -61 112 -127 vlineto
            -18 -21 -34 -10 -38 hhcurveto
            -115 -62 77 124 127 69 75 108 53 33 -19 -27 28 hvcurveto
            46 51 rlineto
            32 -34 -51 33 -76 hhcurveto
            -150 -111 -102 -170 hvcurveto
            return
          </CharString>
          <CharString index="9">
            -7 -47 rlineto
            -2 hlineto
            39 -44 -40 20 -54 hhcurveto
            -111 -101 -98 -158 hvcurveto
            return
          </CharString>
          <CharString index="10">
            90 hmoveto
            388 71 -305 238 249 71 -249 206 295 70 -378 hlineto
            return
          </CharString>
          <CharString index="11">
            196 hmoveto
            84 254 hlineto
            197 402 rlineto
            -87 hlineto
            -84 -185 -20 -48 -23 -46 -23 -49 rlinecurve
            -4 hlineto
            -22 49 -20 46 -21 48 -85 185 rcurveline
            -89 hlineto
            197 -402 rlineto
            return
          </CharString>
          <CharString index="12">
            82 hmoveto
            82 352 hlineto
            49 49 34 26 50 hhcurveto
            64 28 -39 -91 hvcurveto
            -297 82 308 vlineto
            124 -46 66 -102 -67 return
          </CharString>
          <CharString index="13">
            11 51 12 47 10 51 rrcurveto
            4 hlineto
            10 -51 10 -47 12 -51 99 -395 rcurveline
            100 hlineto
            136 656 rlineto
            -80 hlineto
            -69 -357 -13 -70 -12 -71 -12 -71 rlinecurve
            -4 hlineto
            -16 71 -16 72 -16 69 -91 357 rcurveline
            -76 hlineto
            -91 -357 -15 -70 -16 -71 -15 -71 rlinecurve
            -4 hlineto
            -12 71 -14 70 -12 71 -69 357 rcurveline
            -86 hlineto
            return
          </CharString>
          <CharString index="14">
            79 vstem
            -102 callgsubr
            return
          </CharString>
          <CharString index="15">
            75 178 rmoveto
            -124 46 -66 103 67 48 35 53 45 vhcurveto
            3 hlineto
            return
          </CharString>
          <CharString index="16">
            147 callgsubr
            122 -126 165 84 64 35 60 52 vhcurveto
            -47 51 rlineto
            -47 -42 -46 -26 -63 hhcurveto
            -124 -79 104 165 163 82 102 125 55 42 -24 -37 34 hvcurveto
            47 53 rlineto
            43 -38 -62 38 -79 hhcurveto
            -168 -124 169 callsubr
            return
          </CharString>
          <CharString index="17">
            rmoveto
            9 -13 6 -13 -15 vvcurveto
            -46 -35 -16 -55 -5 vhcurveto
            -33 -387 hlineto
            -158 -68 -50 -87 -86 -67 50 158 vhcurveto
            387 -83 -385 vlineto
            -211 102 -72 134 134 101 72 211 vhcurveto
            349 vlineto
            59 13 51 29 66 vvcurveto
            25 -9 22 -14 18 vhcurveto
            endchar
          </CharString>
          <CharString index="18">
            142 callgsubr
            105 -97 141 72 56 26 49 45 vhcurveto
            -46 50 rlineto
            -35 -33 -38 -20 -52 hhcurveto
            -102 -63 76 126 124 67 76 102 45 33 -18 -29 29 hvcurveto
            47 51 rlineto
            35 -35 -54 31 -66 hhcurveto
            -144 -109 -103 -169 hvcurveto
            return
          </CharString>
          <CharString index="19">
            171 rmoveto
            58 38 47 51 34 vhcurveto
            92 -37 81 -30 -82 vvcurveto
            -66 -51 -46 -74 -78 -59 51 71 vhcurveto
            hintmask 11011000
            180 177 rmoveto
            -77 30 -70 32 76 vvcurveto
            62 44 41 59 70 41 -50 -63 -47 -24 -43 -43 -38 vhcurveto
            hintmask 11100100
            -254 -185 rmoveto
            -101 89 -74 120 124 82 75 95 86 -54 45 -57 33 vhcurveto
            4 vlineto
            hintmask 11011000
            39 30 49 57 67 vvcurveto
            99 -69 71 -111 -103 -78 -66 -98 -67 42 -47 47 -33 167 callsubr
            -60 -32 -60 -57 -83 vvcurveto
            endchar
          </CharString>
          <CharString index="20">
            151 95 78 90 81 -57 35 -113 hvcurveto
            -94 hlineto
            -66 -20 22 31 27 14 16 17 15 hvcurveto
            -11 22 27 -6 24 hhcurveto
            return
          </CharString>
          <CharString index="21">
            rmoveto
            -85 callsubr
            return
          </CharString>
          <CharString index="22">
            -67 -77 callsubr
            -67 hlineto
            96 return
          </CharString>
          <CharString index="23">
            153 528 rmoveto
            9 -13 6 -14 -15 vvcurveto
            -37 -27 -20 -47 -8 vhcurveto
            14 -29 -32 7 -33 hhcurveto
            -119 -106 -93 -163 -161 106 -93 119 hvcurveto
            return
          </CharString>
          <CharString index="24">
            89 22 58 62 102 vvcurveto
            136 -96 48 -134 vhcurveto
            -205 -656 83 277 119 hlineto
            158 -277 rlineto
            return
          </CharString>
          <CharString index="25">
            -5 -12 -63 callsubr
            return
          </CharString>
          <CharString index="26">
            -64 callgsubr
            76 162 callgsubr
            -30 22 return
          </CharString>
          <CharString index="27">
            69 -6 70 -5 66 vhcurveto
            4 hlineto
            71 -135 238 -413 rlineto
            86 656 -79 -339 hlineto
            return
          </CharString>
          <CharString index="28">
            115 -105 rmoveto
            -30 -58 rlineto
            -34 51 63 -19 60 hhcurveto
            138 78 72 120 hvcurveto
            return
          </CharString>
          <CharString index="29">
            -55 callsubr
            31 23 -45 callsubr
            -23 22 -31 hvcurveto
            -78 307 -3 callgsubr
            156 -208 rmoveto
            -186 518 rlineto
            -94 hlineto
            -185 -518 rlineto
            84 hlineto
            48 146 rlineto
            197 hlineto
            48 -146 rlineto
            endchar
          </CharString>
          <CharString index="30">
            -68 62 callsubr
            68 rlineto
            return
          </CharString>
          <CharString index="31">
            -111 -100 -98 -158 hvcurveto
            85 1 rmoveto
            111 62 75 78 40 37 -14 -37 41 vhcurveto
            -254 vlineto
            -45 -40 -39 -22 -45 hhcurveto
            -85 -49 70 116 hvcurveto
            return
          </CharString>
          <CharString index="32">
            7 -57 rlineto
            68 486 -67 hlineto
            return
          </CharString>
          <CharString index="33">
            25 58 vvcurveto
            51 -51 27 -87 57 callsubr
            return
          </CharString>
          <CharString index="34">
            -16 21 -58 callgsubr
            return
          </CharString>
          <CharString index="35">
            72 20 47 51 78 vvcurveto
            113 -84 38 -115 vhcurveto
            -179 -518 83 208 96 hlineto
            129 -208 rlineto
            return
          </CharString>
          <CharString index="36">
            rmoveto
            -118 81 callsubr
            118 117 77 -101 -163 -164 -77 -106 -117 hvcurveto
            return
          </CharString>
          <CharString index="37">
            rmoveto
            56 hlineto
            58 73 rlineto
            4 hlineto
            59 26 callsubr
            return
          </CharString>
          <CharString index="38">
            rmoveto
            89 60 76 132 132 -60 74 -89 -90 -59 -74 -132 -132 59 -76 159 callgsubr
            105 35 50 52 51 35 -50 -105 -104 -35 -53 -51 hvcurveto
            return
          </CharString>
          <CharString index="39">
            hlineto
            -39 -5 -51 callgsubr
            return
          </CharString>
          <CharString index="40">
            -56 7 -66 4 -52 vhcurveto
            -4 hlineto
            -60 111 -191 306 rlineto
            -84 hlineto
            return
          </CharString>
          <CharString index="41">
            7 -18 -24 5 -27 hhcurveto
            -99 -84 -67 -106 -58 31 -47 32 -26 hvcurveto
            -4 vlineto
            return
          </CharString>
          <CharString index="42">
            rmoveto
            362 680 rlineto
            -56 hlineto
            -362 -680 rlineto
            return
          </CharString>
          <CharString index="43">
            -68 callgsubr
            63 hlineto
            -92 return
          </CharString>
          <CharString index="44">
            -50 callsubr
            -12 -20 return
          </CharString>
          <CharString index="45">
            -6 21 23 -2 19 hhcurveto
            84 hlineto
            63 35 -15 -45 -51 -61 -48 -93 hvcurveto
            return
          </CharString>
          <CharString index="46">
            -64 -12 66 171 54 154 65 return
          </CharString>
          <CharString index="47">
            174 callgsubr
            -10 callsubr
            69 hlineto
            return
          </CharString>
          <CharString index="48">
            -21 146 62 243 67 return
          </CharString>
          <CharString index="49">
            63 -47 callgsubr
            return
          </CharString>
          <CharString index="50">
            -63 -12 68 244 63 220 67 hstemhm
            159 149 32 84 -61 83 hintmask 11110100
            26 78 rmoveto
            -47 43 65 -43 102 hhcurveto
            117 93 69 113 88 -61 56 -77 18 hvcurveto
            4 vlineto
            hintmask 11111000
            69 26 47 49 77 vvcurveto
            103 -80 59 -111 -75 -59 -34 -46 -49 vhcurveto
            44 -52 rlineto
            38 38 45 27 53 hhcurveto
            68 42 -39 -62 -67 -45 -52 -136 hvcurveto
            -63 vlineto
            hintmask 11110100
            152 52 -51 -76 -71 -55 -46 -77 -75 -50 36 40 -38 hvcurveto
            endchar
          </CharString>
          <CharString index="51">
            rmoveto
            -83 -57 204 callsubr
            57 76 83 84 56 -76 -112 -111 -56 -75 -84 hvcurveto
            return
          </CharString>
          <CharString index="52">
            rmoveto
            -31 -23 -22 203 callgsubr
            return
          </CharString>
          <CharString index="53">
            rmoveto
            248 57 -248 hlineto
            endchar
          </CharString>
          <CharString index="54">
            vstem
            45 hmoveto
            388 69 -287 hlineto
            283 400 rlineto
            49 -359 -68 258 vlineto
            -283 -401 rlineto
            return
          </CharString>
          <CharString index="55">
            82 hmoveto
            82 312 hlineto
            82 33 49 30 41 hhcurveto
            20 11 -3 -5 16 hvcurveto
            return
          </CharString>
          <CharString index="56">
            -55 callsubr
            56 callgsubr
            hvcurveto
            return
          </CharString>
          <CharString index="57">
            69 -36 -21 429 69 return
          </CharString>
          <CharString index="58">
            -215 258 50 237 51 hstem
            37 61 138 62 vstem
            136 258 rmoveto
            41 33 21 24 27 hvcurveto
            4 hlineto
            7 -37 rlineto
            50 196 hlineto
            85 -35 49 -80 -52 -48 -22 -21 -33 vhcurveto
            23 -42 rlineto
            17 27 39 17 35 hhcurveto
            47 14 -31 -43 1 hvcurveto
            -138 -13 -61 -35 -70 vvcurveto
            -57 40 -38 59 vhcurveto
            18 50 rmoveto
            -34 -22 15 35 37 35 26 103 12 hvcurveto
            -85 vlineto
            -27 -29 -26 -13 -27 hhcurveto
            endchar
          </CharString>
          <CharString index="59">
            99 79 65 104 41 -17 37 -23 22 hvcurveto
            100 63 -169 hlineto
            return
          </CharString>
          <CharString index="60">
            174 callgsubr
            -7 callgsubr
            69 hlineto
            return
          </CharString>
          <CharString index="61">
            -533 rmoveto
            -96 -61 78 125 124 61 75 96 95 62 -75 -124 -125 -62 -78 -95 hvcurveto
            hintmask 11110100
            -84 callgsubr
            hintmask 11111000
            13 callsubr
            hintmask 11110100
            3 callgsubr
          </CharString>
          <CharString index="62">
            22 32 31 return
          </CharString>
          <CharString index="63">
            -46 callgsubr
            -32 -23 -22 -31 -32 23 -29 callsubr
          </CharString>
          <CharString index="64">
            -13 -52 -7 vhcurveto
            8 -4 callgsubr
            return
          </CharString>
          <CharString index="65">
            rmoveto
            110 hlineto
            102 57 -31 -86 -85 -57 -42 -102 hvcurveto
            -110 hlineto
            return
          </CharString>
          <CharString index="66">
            -25 -17 -28 -32 -41 vvcurveto
            -38 19 -26 24 -15 vhcurveto
            -4 vlineto
            return
          </CharString>
          <CharString index="67">
            96 486 rmoveto
            102 callgsubr
            103 67 -103 77 vlineto
            62 22 32 46 18 19 -4 -8 18 vhcurveto
            18 63 rlineto
            24 callgsubr
            return
          </CharString>
          <CharString index="68">
            53 rmoveto
            -81 -49 67 124 -10 hvcurveto
            60 43 50 24 40 hhcurveto
            79 39 -52 -83 -84 -48 -56 -63 hvcurveto
            177 529 rmoveto
            return
          </CharString>
          <CharString index="69">
            -39 callsubr
            hintmask 11101100
            164 callgsubr
            126 102 86 83 122 131 -71 66 -111 -52 -57 -31 -49 -40 hvcurveto
            202 4 75 69 90 hhcurveto
            39 40 -19 -31 25 hvcurveto
            endchar
          </CharString>
          <CharString index="70">
            -1 -216 66 155 68 356 69 -12 -20 return
          </CharString>
          <CharString index="71">
            104 -12 73 534 73 return
          </CharString>
          <CharString index="72">
            227 rmoveto
            -84 -37 56 90 88 51 60 66 86 51 -71 -137 8 hvcurveto
            -62 -44 -52 -24 -45 hhcurveto
            -175 -256 rmoveto
            -36 43 43 -21 64 hhcurveto
            146 100 116 244 194 -85 118 -140 -106 -89 -87 -126 -133 67 -75 118 56 59 30 50 41 hvcurveto
            -196 -7 -71 -66 -93 hhcurveto
            -43 -36 16 30 -32 hvcurveto
            endchar
          </CharString>
          <CharString index="73">
            77 38 52 55 7 hvcurveto
            -45 hlineto
            215 callgsubr
            -48 -21 30 34 -8 hvcurveto
            -45 hlineto
            -55 7 38 -52 77 hhcurveto
            return
          </CharString>
          <CharString index="74">
            -26 -19 -19 -26 -27 19 -19 26 hvcurveto
            return
          </CharString>
          <CharString index="75">
            -6 callgsubr
            68 callgsubr
            return
          </CharString>
          <CharString index="76">
            66 -33 -21 430 68 return
          </CharString>
          <CharString index="77">
            -36 27 -26 33 32 27 26 36 38 -27 26 -32 -33 -27 -26 -38 vhcurveto
            return
          </CharString>
          <CharString index="78">
            -22 32 hvcurveto
            endchar
          </CharString>
          <CharString index="79">
            21 5 callgsubr
            hintmask 10111100
            -21 -345 hlineto
            -92 callgsubr
            -308 vlineto
            -124 46 -66 103 67 48 35 53 45 vhcurveto
            3 hlineto
            hintmask 01111100
            113 callsubr
            hintmask 10111110
            45 13 46 29 61 -76 callgsubr
          </CharString>
          <CharString index="80">
            rmoveto
            26 20 19 26 27 -20 18 -26 -26 -19 -18 -27 -26 19 -19 26 hvcurveto
            173 hmoveto
            26 19 19 26 27 -19 18 -26 -26 -19 -18 -27 -26 19 -19 26 hvcurveto
            return
          </CharString>
          <CharString index="81">
            90 hmoveto
            83 208 hlineto
            113 133 196 -341 rlineto
            93 hlineto
            -237 406 205 250 rlineto
            -94 hlineto
            -273 -329 rlineto
            -3 329 -83 hlineto
            return
          </CharString>
          <CharString index="82">
            12 callgsubr
            172 hmoveto
            26 20 20 25 26 -20 86 callsubr
            return
          </CharString>
          <CharString index="83">
            -70 -23 -21 -6 -9 -19 hvcurveto
            11 95 rlineto
            160 56 -213 hlineto
            -18 -188 31 -22 rlineto
            17 21 22 14 31 hhcurveto
            48 34 -32 -54 -49 -34 -37 -46 -45 -31 return
          </CharString>
          <CharString index="84">
            rmoveto
            86 hlineto
            83 47 -24 -66 -61 -43 -33 -86 hvcurveto
            -87 hlineto
            return
          </CharString>
          <CharString index="85">
            -12 76 callsubr
            return
          </CharString>
          <CharString index="86">
            54 vstem
            163 696 rmoveto
            -69 -40 -37 -58 -80 vvcurveto
            -58 23 -32 40 31 22 21 34 33 -26 18 -27 -3 -3 0 -1 -3 vhcurveto
            57 25 34 51 33 vhcurveto
            return
          </CharString>
          <CharString index="87">
            rmoveto
            -48 -35 39 77 -6 hvcurveto
            32 30 26 11 29 hhcurveto
            49 26 -33 -46 -47 -29 -33 -42 hvcurveto
            115 333 rmoveto
            16 -22 -28 14 -45 hhcurveto
            -96 -74 -70 -147 -123 59 -74 92 74 56 57 75 74 -44 51 -78 -37 -33 -14 -26 -28 hvcurveto
            99 7 46 47 58 hhcurveto
            27 21 -11 -13 19 hvcurveto
            endchar
          </CharString>
          <CharString index="88">
            rmoveto
            -48 -27 33 46 47 30 33 41 49 35 -39 -77 6 hvcurveto
            -32 -30 -26 -11 -30 hhcurveto
            -119 -174 rmoveto
            -16 23 28 -14 45 hhcurveto
            96 74 70 147 123 -59 74 -93 -73 -56 -57 -75 -74 44 -51 78 37 33 14 27 28 hvcurveto
            -100 -6 -47 97 callsubr
          </CharString>
          <CharString index="89">
            90 hmoveto
            83 165 hlineto
            90 95 158 -260 rlineto
            89 hlineto
            -197 318 173 200 rlineto
            -92 hlineto
            -218 -246 rlineto
            -3 246 -83 hlineto
            return
          </CharString>
          <CharString index="90">
            32 22 -45 callsubr
            -22 return
          </CharString>
          <CharString index="91">
            rmoveto
            -204 149 -130 174 174 149 130 204 203 -149 127 -174 -174 -149 -127 -203 vhcurveto
            47 hmoveto
            174 125 115 151 151 125 -115 -174 -175 -125 -117 -151 -151 -125 117 175 vhcurveto
            return
          </CharString>
          <CharString index="92">
            rmoveto
            245 57 -245 hlineto
            endchar
          </CharString>
          <CharString index="93">
            74 callsubr
            -53 -7 vhcurveto
            9 155 callsubr
            return
          </CharString>
          <CharString index="94">
            31 23 -45 callsubr
            -23 23 -31 -31 -23 -23 103 callgsubr
          </CharString>
          <CharString index="95">
            19 callsubr
            -104 58 104 58 vlineto
            endchar
          </CharString>
          <CharString index="96">
            218 callgsubr
            -10 callgsubr
            return
          </CharString>
          <CharString index="97">
            -112 rlineto
            return
          </CharString>
          <CharString index="98">
            -474 rmoveto
            44 38 15 20 31 hvcurveto
            -24 40 rlineto
            -15 -23 -28 -11 -31 hhcurveto
            -60 -40 39 66 -4 hvcurveto
            217 hlineto
            3 16 1 6 13 vvcurveto
            64 -32 85 -100 -81 -69 -66 -103 -108 70 -61 88 vhcurveto
            -98 195 rmoveto
            59 8 34 34 48 hhcurveto
            58 19 -49 -44 hvcurveto
            endchar
          </CharString>
          <CharString index="99">
            75 vstem
            90 hmoveto
            75 256 hlineto
            47 -6 70 -4 47 vhcurveto
            4 hlineto
            45 -117 99 -253 rlineto
            40 hlineto
            99 253 45 117 rlineto
            4 hlineto
            -4 -48 -5 -69 -47 vvcurveto
            -256 75 518 -93 vlineto
            -100 -264 -38 -103 -8 callgsubr
            -37 103 -102 264 rlineto
            -93 hlineto
            return
          </CharString>
          <CharString index="100">
            83 -55 rmoveto
            -59 -12 -36 -48 -17 -17 4 4 -12 vhcurveto
            -17 -62 rlineto
            -7 17 25 -6 30 hhcurveto
            97 36 63 99 hvcurveto
            541 -82 vlineto
            return
          </CharString>
          <CharString index="101">
            28 21 20 29 29 -21 20 -28 -28 -21 -20 -29 -29 21 -20 28 hvcurveto
            return
          </CharString>
          <CharString index="102">
            -195 258 51 236 51 hstem
            30 63 177 64 vstem
            182 258 rmoveto
            82 70 63 106 107 -70 62 -82 -83 -69 -62 -107 -106 69 -63 83 hvcurveto
            51 vmoveto
            -55 -34 48 70 71 34 47 55 55 33 -47 -71 -70 -33 -48 -55 hvcurveto
            endchar
          </CharString>
          <CharString index="103">
            15 16 20 32 23 -45 48 hhcurveto
            46 28 41 52 5 hvcurveto
            return
          </CharString>
          <CharString index="104">
            73 callgsubr
            111 rlineto
            -79 hlineto
            -96 -7 callgsubr
            return
          </CharString>
          <CharString index="105">
            90 hmoveto
            83 235 248 -235 235 callsubr
            -211 -248 211 -83 hlineto
            return
          </CharString>
          <CharString index="106">
            -297 43 callsubr
            93 111 hstem
            90 83 vstem
            145 callsubr
            return
          </CharString>
          <CharString index="107">
            48 -3 48 hstemhm
            102 42 179 43 hintmask 11110111
            323 824 rmoveto
            hintmask 11111011
            -29 -4 -15 -16 218 callsubr
            -41 -52 -5 hvcurveto
            42 hlineto
            32 callgsubr
            return
          </CharString>
          <CharString index="108">
            rmoveto
            86 35 198 callsubr
            -25 -39 -51 hhcurveto
            -52 -25 39 41 -6 hvcurveto
            -44 hlineto
            -59 5 36 -68 86 hhcurveto
            return
          </CharString>
          <CharString index="109">
            -91 callgsubr
            endchar
          </CharString>
          <CharString index="110">
            17 callgsubr
            120 106 hstemhm
            67 114 -99 82 hintmask 11110000
            124 586 rmoveto
            32 25 22 31 32 -25 21 -32 177 callsubr
            hintmask 11101000
            -42 -586 rmoveto
            82 188 callgsubr
            endchar
          </CharString>
          <CharString index="111">
            rmoveto
            67 hlineto
            8 137 22 96 95 122 rrcurveto
            35 -273 -54 201 vlineto
            -80 -109 -32 -92 -8 -135 rrcurveto
            return
          </CharString>
          <CharString index="112">
            rmoveto
            63 hlineto
            -90 148 callsubr
            endchar
          </CharString>
          <CharString index="113">
            -12 rmoveto
            124 80 101 198 198 -80 101 -124 -125 -80 -101 -198 -198 80 -101 125 hvcurveto
            66 vmoveto
            -79 -46 87 146 146 46 86 79 78 46 -86 -146 -146 -46 -87 -78 hvcurveto
            endchar
          </CharString>
          <CharString index="114">
            108 -87 -21 548 108 0 -20 return
          </CharString>
          <CharString index="115">
            214 callsubr
            83 78 59 49 63 47 -28 31 -44 23 vhcurveto
            4 vlineto
            return
          </CharString>
          <CharString index="116">
            226 hmoveto
            84 586 198 70 -480 -70 198 hlineto
            return
          </CharString>
          <CharString index="117">
            160 rmoveto
            149 225 18 32 18 34 16 32 rlinecurve
            4 hlineto
            -2 -34 -3 -52 -34 vvcurveto
            -203 vlineto
            165 hmoveto
            -87 414 -92 hlineto
            -273 -425 rlineto
            -55 287 -168 78 168 87 vlineto
            endchar
          </CharString>
          <CharString index="118">
            hmoveto
            -61 callgsubr
            return
          </CharString>
          <CharString index="119">
            119 106 93 161 90 -33 69 -49 44 hvcurveto
            return
          </CharString>
          <CharString index="120">
            142 101 104 169 82 -24 67 -42 46 hvcurveto
            return
          </CharString>
          <CharString index="121">
            -22 callsubr
            61 111 return
          </CharString>
          <CharString index="122">
            rmoveto
            86 149 callgsubr
            -51 hlineto
            -39 -6 -23 -37 -47 hhcurveto
            -46 -24 227 callsubr
            5 return
          </CharString>
          <CharString index="123">
            26 -88 3 vhcurveto
            -8 -47 rlineto
            55 -3 203 callsubr
            return
          </CharString>
          <CharString index="124">
            rmoveto
            69 hlineto
            -88 112 rlineto
            -94 hlineto
            endchar
          </CharString>
          <CharString index="125">
            28 31 46 vvcurveto
            66 -57 39 -67 -54 -40 -25 -39 -34 vhcurveto
            39 -34 rlineto
            return
          </CharString>
          <CharString index="126">
            vlineto
            116 hmoveto
            -58 240 -72 hlineto
            -164 -253 rlineto
            -33 178 return
          </CharString>
          <CharString index="127">
            rmoveto
            67 68 rlineto
            -49 callgsubr
            return
          </CharString>
          <CharString index="128">
            77 20 37 58 65 vvcurveto
            115 -92 45 -133 vhcurveto
            -195 hlineto
            83 -280 rmoveto
            214 101 vlineto
            102 52 -30 -71 -73 -46 -40 -112 hvcurveto
            -97 -310 rmoveto
            248 114 vlineto
            return
          </CharString>
          <CharString index="129">
            89 198 callgsubr
            -89 -90 -59 -75 -131 -133 59 -75 90 hvcurveto
            51 vmoveto
            return
          </CharString>
          <CharString index="130">
            -78 3 vhcurveto
            -8 -42 112 callsubr
            return
          </CharString>
          <CharString index="131">
            -54 -41 -62 -41 24 -26 34 -22 vhcurveto
            -4 vlineto
            return
          </CharString>
          <CharString index="132">
            -32 -23 45 -48 hhcurveto
            -46 -28 -40 -53 -5 hvcurveto
            return
          </CharString>
          <CharString index="133">
            -73 rlineto
            56 hlineto
            -83 119 rlineto
            return
          </CharString>
          <CharString index="134">
            hlineto
            96 111 rlineto
            endchar
          </CharString>
          <CharString index="135">
            -12 131 callsubr
            return
          </CharString>
          <CharString index="136">
            rmoveto
            29 5 172 callgsubr
            hintmask 11011000
            216 callsubr
            hintmask 10111000
            25 callsubr
            endchar
          </CharString>
          <CharString index="137">
            rmoveto
            67 68 rlineto
            4 hlineto
            67 -68 rlineto
            66 64 callsubr
          </CharString>
          <CharString index="138">
            -33 -25 -22 -18 -28 -28 22 -14 23 213 callsubr
            -1 return
          </CharString>
          <CharString index="139">
            29 -22 callsubr
            return
          </CharString>
          <CharString index="140">
            82 rmoveto
            19 callgsubr
            173 hmoveto
            -6 callsubr
            endchar
          </CharString>
          <CharString index="141">
            -12 108 callgsubr
            return
          </CharString>
          <CharString index="142">
            rmoveto
            28 21 20 29 201 callgsubr
            -29 20 -20 29 hvcurveto
            172 hmoveto
            19 callgsubr
            endchar
          </CharString>
          <CharString index="143">
            hlineto
            96 112 rlineto
            endchar
          </CharString>
          <CharString index="144">
            rmoveto
            55 39 37 56 55 -39 37 -55 -54 -39 -37 -55 -56 39 -37 54 hvcurveto
            37 vmoveto
            -26 -22 22 34 33 22 22 26 27 21 -22 -33 -34 -21 -22 -27 hvcurveto
            endchar
          </CharString>
          <CharString index="145">
            39 -36 -49 29 -69 hhcurveto
            -127 -116 -99 -256 -205 return
          </CharString>
          <CharString index="146">
            233 callsubr
            -6 hvcurveto
            -51 hlineto
            -59 5 36 -68 86 hhcurveto
            return
          </CharString>
          <CharString index="147">
            -31 -47 -61 170 callgsubr
            33 5 return
          </CharString>
          <CharString index="148">
            57 -12 73 210 69 255 73 return
          </CharString>
          <CharString index="149">
            -216 91 callsubr
            return
          </CharString>
          <CharString index="150">
            21 170 callsubr
            return
          </CharString>
          <CharString index="151">
            135 callgsubr
            28 -21 21 -28 return
          </CharString>
          <CharString index="152">
            hstem
            309 84 vstem
            31 93 rmoveto
            -69 38 60 -36 83 hhcurveto
            128 53 92 113 hvcurveto
            463 -84 -455 vlineto
            -100 -35 -40 -70 -47 -37 22 52 -29 vhcurveto
            return
          </CharString>
          <CharString index="153">
            -32 -6 -22 -31 -45 hhcurveto
            -45 -21 31 32 -6 hvcurveto
            -51 hlineto
            -56 7 36 -54 80 hhcurveto
            return
          </CharString>
          <CharString index="154">
            vstem
            269 -12 rmoveto
            133 81 123 210 210 -81 119 -133 -133 -81 -118 -211 -210 81 -123 133 hvcurveto
            68 vmoveto
            return
          </CharString>
          <CharString index="155">
            rmoveto
            32 23 -45 callsubr
            -23 22 -32 -31 -23 -22 103 callgsubr
          </CharString>
          <CharString index="156">
            -7 23 -11 -26 vvcurveto
            -26 return
          </CharString>
          <CharString index="157">
            vstem
            86 -145 rmoveto
            69 40 38 58 79 vvcurveto
            58 -24 33 -39 -31 -22 -21 -35 -32 25 -18 28 213 callsubr
            -58 -25 -33 -50 -34 vhcurveto
            return
          </CharString>
          <CharString index="158">
            rmoveto
            47 -22 rlineto
            55 81 31 80 113 vvcurveto
            112 -31 79 -55 81 vhcurveto
            -47 -22 rlineto
            51 -78 20 -84 -88 vvcurveto
            -89 -20 -83 -51 -80 vhcurveto
            endchar
          </CharString>
          <CharString index="159">
            67 91 rlineto
            4 hlineto
            return
          </CharString>
          <CharString index="160">
            hvcurveto
            -45 hlineto
            -32 -6 -24 -30 -50 hhcurveto
            -50 -24 30 32 -6 hvcurveto
            -45 hlineto
            -53 return
          </CharString>
          <CharString index="161">
            hstemhm
            45 60 -44 59 127 60 -47 60 hintmask 11100100
            105 return
          </CharString>
          <CharString index="162">
            rmoveto
            68 hlineto
            95 141 rlineto
            -60 hlineto
            return
          </CharString>
          <CharString index="163">
            23 29 callgsubr
            return
          </CharString>
          <CharString index="164">
            3 vhcurveto
            -9 -48 rlineto
            return
          </CharString>
          <CharString index="165">
            20 hlineto
            -28 -28 -36 -39 -54 vvcurveto
            -56 40 71 callgsubr
            -13 -12 -5 -15 hhcurveto
            -25 -22 15 31 hvcurveto
            return
          </CharString>
          <CharString index="166">
            rmoveto
            hintmask 11101000
            78 callgsubr
          </CharString>
          <CharString index="167">
            37 -54 -54 -39 -37 -55 -56 39 -37 54 hvcurveto
            37 vmoveto
            -27 -21 22 34 33 21 22 27 27 21 -22 -33 -34 -21 -22 -27 hvcurveto
            endchar
          </CharString>
          <CharString index="168">
            103 86 83 122 131 -72 66 -110 -52 -57 -31 -49 -40 hvcurveto
            202 4 75 69 89 hhcurveto
            40 39 -19 -31 26 hvcurveto
            endchar
          </CharString>
          <CharString index="169">
            -8 callgsubr
            -67 return
          </CharString>
          <CharString index="170">
            rmoveto
            80 36 54 56 7 hvcurveto
            -51 hlineto
            -32 -6 -21 73 callsubr
            6 37 -54 80 hhcurveto
            endchar
          </CharString>
          <CharString index="171">
            219 callsubr
            endchar
          </CharString>
          <CharString index="172">
            63 hhcurveto
            76 63 45 72 52 -40 33 -44 return
          </CharString>
          <CharString index="173">
            hstem
            82 168 callgsubr
            return
          </CharString>
          <CharString index="174">
            -93 -209 68 627 -20 return
          </CharString>
          <CharString index="175">
            56 42 -85 79 hhcurveto
            43 46 27 62 36 hvcurveto
            -46 34 rlineto
            -43 -23 -25 -18 -29 hhcurveto
            hintmask 01011000
            -56 -42 85 -79 hhcurveto
            -43 -46 -27 return
          </CharString>
          <CharString index="176">
            -32 -45 hhcurveto
            -45 -22 32 31 -6 hvcurveto
            -50 hlineto
            -55 return
          </CharString>
          <CharString index="177">
            vstem
            223 callgsubr
            return
          </CharString>
          <CharString index="178">
            159 51 hstem
            39 59 161 61 vstem
            173 return
          </CharString>
          <CharString index="179">
            -55 6 38 -52 77 hhcurveto
            78 37 52 55 7 hvcurveto
            return
          </CharString>
          <CharString index="180">
            -31 -45 hhcurveto
            -45 -22 31 32 -6 hvcurveto
            -50 hlineto
            -56 return
          </CharString>
          <CharString index="181">
            -18 -38 rlineto
            124 callsubr
            return
          </CharString>
          <CharString index="182">
            hstemhm
            47 85 258 83 return
          </CharString>
          <CharString index="183">
            70 402 70 return
          </CharString>
          <CharString index="184">
            67 hlineto
            8 136 22 97 95 121 rrcurveto
            36 -273 -55 201 vlineto
            -80 -109 -32 -91 -8 -135 rrcurveto
            endchar
          </CharString>
          <CharString index="185">
            rmoveto
            -247 -58 247 hlineto
            endchar
          </CharString>
          <CharString index="186">
            rmoveto
            48 8 44 20 50 vvcurveto
            47 -42 23 -78 3 vhcurveto
            -9 -41 rlineto
            50 105 callsubr
            -20 -10 -25 -6 vhcurveto
            return
          </CharString>
          <CharString index="187">
            30 32 41 49 35 -39 -77 6 hvcurveto
            -31 -30 -26 -12 -30 hhcurveto
            -119 -173 rmoveto
            -17 23 28 -14 45 hhcurveto
            96 74 return
          </CharString>
          <CharString index="188">
            -77 106 164 79 callgsubr
            return
          </CharString>
          <CharString index="189">
            115 callgsubr
            -24 -12 -33 -8 vhcurveto
            return
          </CharString>
          <CharString index="190">
            23 callsubr
            -20 -9 return
          </CharString>
          <CharString index="191">
            rmoveto
            58 hlineto
            64 65 rlineto
            4 hlineto
            64 -65 rlineto
            return
          </CharString>
          <CharString index="192">
            818 -60 callsubr
            return
          </CharString>
          <CharString index="193">
            20 -26 -26 -19 -20 -26 -25 19 -20 26 hvcurveto
            return
          </CharString>
          <CharString index="194">
            145 callgsubr
            -59 hlineto
            return
          </CharString>
          <CharString index="195">
            -40 -39 -30 -67 hvcurveto
            -41 vlineto
            return
          </CharString>
          <CharString index="196">
            hstemhm
            75 83 222 82 return
          </CharString>
          <CharString index="197">
            -67 171 callsubr
            return
          </CharString>
          <CharString index="198">
            0 71 515 70 return
          </CharString>
          <CharString index="199">
            vvcurveto
            69 39 48 72 45 31 -22 -31 25 vhcurveto
            48 47 rlineto
            43 -35 -49 32 -71 hhcurveto
            -111 -75 -71 -113 return
          </CharString>
          <CharString index="200">
            54 vstem
            181 66 rmoveto
            36 28 -118 158 118 156 -36 30 -136 -155 rlineto
            -62 vlineto
            return
          </CharString>
          <CharString index="201">
            23 -78 3 vhcurveto
            -7 -41 rlineto
            49 -3 20 -12 -26 vvcurveto
            -21 return
          </CharString>
          <CharString index="202">
            rmoveto
            83 112 rlineto
            -77 hlineto
            -66 -10 callsubr
            158 hmoveto
            return
          </CharString>
          <CharString index="203">
            706 rmoveto
            -88 112 rlineto
            -94 hlineto
            113 -10 callsubr
            return
          </CharString>
          <CharString index="204">
            -47 -58 hhcurveto
            -27 -21 11 13 -19 hvcurveto
            endchar
          </CharString>
          <CharString index="205">
            -518 rmoveto
            62 98 50 81 rlineto
            4 hlineto
            -5 -109 rlineto
            -70 vlineto
            116 hmoveto
            -58 240 -72 hlineto
            return
          </CharString>
          <CharString index="206">
            -13 -5 -16 hhcurveto
            -24 -22 15 31 39 25 37 43 32 hvcurveto
            -58 hlineto
            -33 -25 -38 -45 -54 vvcurveto
            endchar
          </CharString>
          <CharString index="207">
            -34 -5 -12 -17 -19 -33 -31 51 -50 hhcurveto
            return
          </CharString>
          <CharString index="208">
            126 callsubr
            -32 return
          </CharString>
          <CharString index="209">
            -38 -22 -36 -38 -49 vvcurveto
            endchar
          </CharString>
          <CharString index="210">
            -50 -26 -46 -60 -6 hvcurveto
            endchar
          </CharString>
          <CharString index="211">
            -44 -30 -27 -39 -41 vvcurveto
            return
          </CharString>
          <CharString index="212">
            -3 21 -10 -26 vvcurveto
            -21 return
          </CharString>
          <CharString index="213">
            hstem
            90 83 vstem
            90 hmoveto
            return
          </CharString>
          <CharString index="214">
            41 -26 247 callgsubr
            return
          </CharString>
          <CharString index="215">
            38 rlineto
            -29 7 -23 11 27 vvcurveto
            25 37 13 52 7 vhcurveto
            -8 41 rlineto
            -76 -7 -69 -27 -58 vvcurveto
            return
          </CharString>
          <CharString index="216">
            rlineto
            71 vlineto
            -143 -5 5 160 rlineto
            -70 hlineto
            5 -160 -143 5 rlineto
            -71 vlineto
            143 return
          </CharString>
          <CharString index="217">
            7 callsubr
            hstemhm
            90 79 return
          </CharString>
          <CharString index="218">
            125 callgsubr
            6 15 18 20 return
          </CharString>
          <CharString index="219">
            rlineto
            49 105 callsubr
            return
          </CharString>
          <CharString index="220">
            7 -76 rlineto
            68 455 hlineto
            return
          </CharString>
          <CharString index="221">
            -141 rlineto
            63 hlineto
            return
          </CharString>
          <CharString index="222">
            543 53 hstem
            52 62 145 143 callsubr
            230 hlineto
            32 32 26 15 return
          </CharString>
          <CharString index="223">
            240 223 57 hstem
            41 718 vstem
            41 223 rmoveto
            718 57 -718 hlineto
            endchar
          </CharString>
          <CharString index="224">
            67 -91 rlineto
            59 hlineto
            -94 245 callgsubr
          </CharString>
          <CharString index="225">
            -69 callgsubr
            107 141 89 callsubr
            23 68 hintmask 10111100
            return
          </CharString>
          <CharString index="226">
            rmoveto
            47 hlineto
            34 5 12 17 19 34 207 callsubr
            return
          </CharString>
          <CharString index="227">
            164 -164 212 -48 -20 hstemhm
            82 82 55.5 56.5 return
          </CharString>
          <CharString index="228">
            51 172 43 80 56 hstem
            259 64 vstem
            35 return
          </CharString>
          <CharString index="229">
            201 callsubr
            64 hlineto
            -93 106 rlineto
            -72 hlineto
            return
          </CharString>
          <CharString index="230">
            34 12 15 19 vhcurveto
            -21 41 rlineto
            -8 return
          </CharString>
          <CharString index="231">
            29 -7 22 161 callsubr
            return
          </CharString>
          <CharString index="232">
            89 callgsubr
            hstemhm
            82 82 return
          </CharString>
          <CharString index="233">
            rmoveto
            31 23 -45 callsubr
            -23 23 -31 return
          </CharString>
          <CharString index="234">
            429 62 -429 hlineto
            return
          </CharString>
          <CharString index="235">
            hstemhm
            186 callgsubr
            return
          </CharString>
          <CharString index="236">
            38 168 callsubr
            return
          </CharString>
          <CharString index="237">
            vstem
            57 266 rmoveto
            return
          </CharString>
          <CharString index="238">
            73 595 -20 return
          </CharString>
          <CharString index="239">
            32 callsubr
            66 163 callsubr
            52 86 12 46 198 46 12 86 return
          </CharString>
          <CharString index="240">
            rmoveto
            -37 27 -25 33 33 26 25 37 38 -26 25 -33 -33 -27 -25 -38 vhcurveto
            endchar
          </CharString>
          <CharString index="241">
            rmoveto
            32 24 -45 callsubr
            -24 22 -32 -32 -25 -22 -31 -32 25 -29 callsubr
          </CharString>
          <CharString index="242">
            21 21 230 callsubr
            50 112 hstem
            90 83 269 83 vstem
            return
          </CharString>
          <CharString index="243">
            85 vstem
            99 431 rmoveto
            50 hlineto
            16 167 3 92 rlineto
            -88 hlineto
            3 -92 rlineto
            return
          </CharString>
          <CharString index="244">
            rmoveto
            46 hlineto
            34 6 11 17 20 34 29 -51 51 hhcurveto
            49 27 46 60 5 hvcurveto
            return
          </CharString>
          <CharString index="245">
            -37 21 -21 208 60 184 66 73 111 hstem
            90 83 216 79 vstem
            return
          </CharString>
          <CharString index="246">
            rmoveto
            525 2 hlineto
            -260 494 -8 callgsubr
            -261 -494 rlineto
            endchar
          </CharString>
          <CharString index="247">
            -2 155 callgsubr
            -9 vhcurveto
            return
          </CharString>
          <CharString index="248">
            hlineto
            92 -114 rlineto
            51 hlineto
            endchar
          </CharString>
          <CharString index="249">
            158 0 70 331 85 return
          </CharString>
          <CharString index="250">
            62 186 callsubr
            62 return
          </CharString>
          <CharString index="251">
            -145 43 callsubr
            return
          </CharString>
          <CharString index="252">
            90 hmoveto
            235 callsubr
            hlineto
            return
          </CharString>
          <CharString index="253">
            51 hstem
            35 62 173 63 return
          </CharString>
          <CharString index="254">
            -31 -46 -62 170 callgsubr
            return
          </CharString>
          <CharString index="255">
            141 rlineto
            -86 hlineto
            return
          </CharString>
          <CharString index="256">
            63 150 66 return
          </CharString>
          <CharString index="257">
            99 28 callsubr
            70 112 hstem
            87 83 308 80 43 67 vstem
            return
          </CharString>
          <CharString index="258">
            -224 265 49 105 41 93 50 42 94 hstem
            28 60 167 55 vstem
            return
          </CharString>
          <CharString index="259">
            rmoveto
            24 18 17 22 23 -18 16 -24 -24 -18 -16 -23 -22 18 -17 24 hvcurveto
            return
          </CharString>
          <CharString index="260">
            90 hmoveto
            183 hlineto
            124 88 48 103 71 -47 39 -73 14 hvcurveto
            4 vlineto
            return
          </CharString>
          <CharString index="261">
            51 35 -51 -104 -104 -35 -53 -51 hvcurveto
            endchar
          </CharString>
          <CharString index="262">
            -40 rlineto
            75 28 callgsubr
            return
          </CharString>
          <CharString index="263">
            546 hstem
            110 62 vstem
            39 return
          </CharString>
          <CharString index="264">
            47 hstem
            147 62 vstem
            209 return
          </CharString>
          <CharString index="265">
            181 callgsubr
            105 return
          </CharString>
          <CharString index="266">
            -12 65 275 62 191 69 return
          </CharString>
          <CharString index="267">
            -127 -210 -211 return
          </CharString>
          <CharString index="268">
            -11 -26 vvcurveto
            -26 -36 -13 return
          </CharString>
          <CharString index="269">
            -216 40 197 -21 return
          </CharString>
          <CharString index="270">
            56 -4 56 hstemhm
            return
          </CharString>
          <CharString index="271">
            29 20 20 29 29 -20 20 -29 -28 211 callgsubr
            28 hvcurveto
            return
          </CharString>
          <CharString index="272">
            53 40 35 53 53 -40 35 -53 -55 -39 -35 -53 -53 39 -35 55 hvcurveto
            return
          </CharString>
          <CharString index="273">
            -31 -51 hvcurveto
            -195 62 204 vlineto
            75 return
          </CharString>
          <CharString index="274">
            vhcurveto
            -4 vlineto
            hintmask 11100100
            return
          </CharString>
          <CharString index="275">
            53 246 callsubr
            return
          </CharString>
          <CharString index="276">
            -129 -211 hvcurveto
            return
          </CharString>
          <CharString index="277">
            -21 518 -20 return
          </CharString>
          <CharString index="278">
            -92 -8 callgsubr
            return
          </CharString>
          <CharString index="279">
            -28 callgsubr
            87 70 460 -20 hstem
            87 83 67 109 71 79 return
          </CharString>
          <CharString index="280">
            -26 vvcurveto
            -21 -18 217 callgsubr
          </CharString>
          <CharString index="281">
            58 10 53 -74 callsubr
            return
          </CharString>
          <CharString index="282">
            -63 hlineto
            -35 -21 -42 -16 -59 -10 rrcurveto
            -53 117 vlineto
            endchar
          </CharString>
          <CharString index="283">
            73 rlineto
            4 hlineto
            58 -73 rlineto
            56 hlineto
            return
          </CharString>
          <CharString index="284">
            -32 -25 -21 -32 -31 25 -22 32 hvcurveto
            return
          </CharString>
          <CharString index="285">
            -184 -21 193 69 372 69 return
          </CharString>
          <CharString index="286">
            hlineto
            -95 141 rlineto
            -67 hlineto
            return
          </CharString>
          <CharString index="287">
            -135 0 67 352 67 return
          </CharString>
          <CharString index="288">
            rmoveto
            -248 -57 248 hlineto
            return
          </CharString>
          <CharString index="289">
            hstemhm
            232 callsubr
            return
          </CharString>
          <CharString index="290">
            -39 callgsubr
            -161 return
          </CharString>
          <CharString index="291">
            45 -29 187 callsubr
            return
          </CharString>
          <CharString index="292">
            -28 20 -21 29 hvcurveto
            return
          </CharString>
          <CharString index="293">
            vstem
            52 266 rmoveto
            return
          </CharString>
          <CharString index="294">
            22 -68 10 vhcurveto
            return
          </CharString>
          <CharString index="295">
            -85 callsubr
            -7 callgsubr
            return
          </CharString>
          <CharString index="296">
            23 -78 2 vhcurveto
            -7 -41 rlineto
            49 -2 20 -13 -26 vvcurveto
            -21 return
          </CharString>
          <CharString index="297">
            32 31 -6 hvcurveto
            -50 hlineto
            -55 6 37 -55 80 hhcurveto
            endchar
          </CharString>
          <CharString index="298">
            -34 -8 -21 -30 return
          </CharString>
          <CharString index="299">
            239 callgsubr
            16 19 20 return
          </CharString>
          <CharString index="300">
            -12 69 -36 -21 409 69 93 48 -48 141 hstemhm
            return
          </CharString>
          <CharString index="301">
            -3 20 -12 173 callsubr
          </CharString>
          <CharString index="302">
            21 -28 -29 -20 -21 -28 185 callsubr
            endchar
          </CharString>
          <CharString index="303">
            -216 40 -19 -21 237 -21 return
          </CharString>
          <CharString index="304">
            60 -44 60 127 59 -47 60 return
          </CharString>
          <CharString index="305">
            191 callgsubr
            -44 hlineto
            -41 -6 return
          </CharString>
          <CharString index="306">
            -64 rmoveto
            47 11 46 18 54 vvcurveto
            return
          </CharString>
          <CharString index="307">
            hvcurveto
            45 hlineto
            34 6 15 18 20 return
          </CharString>
          <CharString index="308">
            4 hlineto
            63 -62 rlineto
            return
          </CharString>
          <CharString index="309">
            hstem
            3 538 vstem
            return
          </CharString>
          <CharString index="310">
            28 -14 -26 vvcurveto
            -25 return
          </CharString>
          <CharString index="311">
            75 111 112 return
          </CharString>
          <CharString index="312">
            hstemhm
            85 119 -93.5 68 hintmask 01010000
            return
          </CharString>
          <CharString index="313">
            24 callgsubr
            -77 return
          </CharString>
          <CharString index="314">
            30 -51 50 hhcurveto
            50 26 46 60 6 hvcurveto
            -47 hlineto
            return
          </CharString>
          <CharString index="315">
            168 -101 101 -142 -143 -100 -101 -168 return
          </CharString>
          <CharString index="316">
            184 callgsubr
            84 -58 47 -70 -23 -21 return
          </CharString>
          <CharString index="317">
            184 callsubr
            endchar
          </CharString>
          <CharString index="318">
            419 67 171 67 return
          </CharString>
          <CharString index="319">
            88 hstem
            97 47 vstem
            49 return
          </CharString>
          <CharString index="320">
            3 2 0 1 3 vhcurveto
            return
          </CharString>
          <CharString index="321">
            -126 rmoveto
            -59 55 -50 return
          </CharString>
          <CharString index="322">
            -212 59 174 -21 return
          </CharString>
          <CharString index="323">
            -28 -5 -15 -17 -20 hhcurveto
            return
          </CharString>
          <CharString index="324">
            55 -4 55 hstemhm
            return
          </CharString>
          <CharString index="325">
            -20 hhcurveto
            hintmask 11110111
            -32 -23 45 -48 hhcurveto
            -46 -28 return
          </CharString>
          <CharString index="326">
            hlineto
            -96 112 rlineto
            -79 hlineto
            -96 -10 callsubr
            return
          </CharString>
          <CharString index="327">
            575 47 55 25 hstem
            -126 252 vstem
            return
          </CharString>
          <CharString index="328">
            -32 -23 45 -48 hhcurveto
            -46 -28 -41 -52 -5 hvcurveto
            return
          </CharString>
          <CharString index="329">
            90 hmoveto
            370 71 -287 585 -83 hlineto
            return
          </CharString>
          <CharString index="330">
            130 443 rmoveto
            86 149 callgsubr
            return
          </CharString>
          <CharString index="331">
            rmoveto
            -94 hlineto
            -89 -7 callgsubr
            69 hlineto
            endchar
          </CharString>
          <CharString index="332">
            -70 -90 hhcurveto
            -40 -39 20 31 -26 hvcurveto
            endchar
          </CharString>
          <CharString index="333">
            rmoveto
            48 8 45 20 51 vvcurveto
            return
          </CharString>
          <CharString index="334">
            37 39 -5 hvcurveto
            -51 hlineto
            -59 return
          </CharString>
          <CharString index="335">
            -250 1000 hstem
            92 58 return
          </CharString>
          <CharString index="336">
            -42 -41 -34 22 36 -24 hvcurveto
            return
          </CharString>
          <CharString index="337">
            -21 277 68 244 67 return
          </CharString>
          <CharString index="338">
            hvcurveto
            -51 hlineto
            -39 -5 return
          </CharString>
          <CharString index="339">
            46 80 260 72 return
          </CharString>
          <CharString index="340">
            hhcurveto
            -47 -23 37 39 return
          </CharString>
          <CharString index="341">
            -13 -26 vvcurveto
            -27 return
          </CharString>
          <CharString index="342">
            83 518 -83 return
          </CharString>
          <CharString index="343">
            86 36 68 59 return
          </CharString>
          <CharString index="344">
            141 hstemhm
            82 82 225 82 hintmask 11011100
            return
          </CharString>
          <CharString index="345">
            rrcurveto
            51 -397 -71 304 vlineto
            -124 return
          </CharString>
          <CharString index="346">
            573 119 -52 114 hstemhm
            -116 return
          </CharString>
          <CharString index="347">
            rrcurveto
            51 -411 -71 318 vlineto
            -126 return
          </CharString>
          <CharString index="348">
            100 hstem
            167 82 vstem
            167 hmoveto
            82 return
          </CharString>
          <CharString index="349">
            hhcurveto
            127 116 99 256 205 return
          </CharString>
          <CharString index="350">
            -82 109 rmoveto
            245 58 -245 hlineto
            return
          </CharString>
          <CharString index="351">
            114 rlineto
            -70 hlineto
            endchar
          </CharString>
          <CharString index="352">
            vstem
            82 hmoveto
            82 return
          </CharString>
          <CharString index="353">
            5 hvcurveto
            -42 hlineto
            return
          </CharString>
          <CharString index="354">
            24 58 vvcurveto
            52 return
          </CharString>
        <CharString name=".notdef">
          93 0 58 542 60 hstem
          89 65 344 67 vstem
          89 hmoveto
          476 660 -476 hlineto
          65 -550 rmoveto
          462 vlineto
          127 -232 rlineto
          91 hmoveto
          126 232 rlineto
          -462 vlineto
          -301 -52 rmoveto
          74 132 54 103 rlineto
          4 hlineto
          52 -103 73 -132 rlineto
          -129 329 rmoveto
          -50 94 -66 119 rlineto
          235 hlineto
          -66 -119 -49 -94 rlineto
          endchar
        </CharString>
        <CharString name="A">
          -73 callsubr
          202 callsubr
          172 267 -105 callsubr
        </CharString>
        <CharString name="A.sc">
          -72 callgsubr
          204 callgsubr
          156 208 rmoveto
          -104 callgsubr
        </CharString>
        <CharString name="A.sups">
          -197 394 49 205 50 hstem
          -1 366 vstem
          118 443 rmoveto
          19 62 15 47 14 47 14 49 rlinecurve
          2 hlineto
          14 -47 14 -48 15 -48 19 -62 rcurveline
          54 -177 rmoveto
          67 hlineto
          -147 432 rlineto
          -72 hlineto
          -147 -432 rlineto
          64 hlineto
          40 128 rlineto
          156 hlineto
          endchar
        </CharString>
        <CharString name="AE">
          262 0 71 120 67 51 118 callgsubr
          -66 66 hstemhm
          401 84 hintmask 11110100
          229 258 rmoveto
          61 118 rlineto
          hintmask 11101100
          36 71 36 72 35 71 rrcurveto
          4 -332 hlineto
          84 -187 rmoveto
          238 232 71 -232 vlineto
          hintmask 11110100
          206 278 70 -411 vlineto
          -344 -656 rlineto
          88 hlineto
          99 191 rlineto
          206 -191 372 71 hlineto
          endchar
        </CharString>
        <CharString name="AE.sc">
          152 0 66 75 62 36 149 callsubr
          -63 63 hstemhm
          342 84 hintmask 11110100
          204 203 rmoveto
          48 89 rlineto
          hintmask 11101100
          29 52 29 57 29 54 rrcurveto
          3 -252 hlineto
          84 -137 rmoveto
          173 190 63 -190 vlineto
          hintmask 11110100
          150 227 66 -359 vlineto
          -286 -518 rlineto
          86 hlineto
          76 141 rlineto
          172 -141 321 66 hlineto
          endchar
        </CharString>
        <CharString name="Aacute">
          -73 callsubr
          50 112 202 callsubr
          401 85 callsubr
          -116 -439 -105 callsubr
        </CharString>
        <CharString name="Aacute.sc">
          -72 callgsubr
          73 111 204 callgsubr
          365 702 -47 callsubr
          -96 -383 rmoveto
          -104 callgsubr
        </CharString>
        <CharString name="Abreve">
          -73 callsubr
          52 47 202 callsubr
          343 818 rmoveto
          46 callsubr
          80 37 54 56 6 hvcurveto
          -221 -551 -105 callsubr
        </CharString>
        <CharString name="Abreve.sc">
          -72 callgsubr
          74 47 204 callgsubr
          307 702 rmoveto
          40 callgsubr
          6 37 -55 80 hhcurveto
          80 36 55 55 7 hvcurveto
          -201 -494 rmoveto
          -104 callgsubr
        </CharString>
        <CharString name="Acircumflex">
          -73 callsubr
          50 112 202 callsubr
          268 774 rmoveto
          4 hlineto
          67 -68 rlineto
          67 219 callsubr
          66 hlineto
          -29 -439 -105 callsubr
        </CharString>
        <CharString name="Acircumflex.sc">
          -72 callgsubr
          73 111 204 callgsubr
          232 659 rmoveto
          -49 callgsubr
          67 hlineto
          -96 111 rlineto
          -80 hlineto
          -96 -7 callgsubr
          67 hlineto
          -9 -383 rmoveto
          -104 callgsubr
        </CharString>
        <CharString name="Adieresis">
          -73 callsubr
          59 98 hstem
          135 98 75 98 vstem
          357 715 rmoveto
          28 21 21 28 201 callgsubr
          185 callsubr
          -173 hmoveto
          -13 callgsubr
          -28 -21 -20 -29 -10 callgsubr
          -12 -448 -105 callsubr
        </CharString>
        <CharString name="Adieresis.sc">
          -72 callgsubr
          82 98 hstem
          99 97 75 98 vstem
          320 600 rmoveto
          -6 callsubr
          -173 hmoveto
          164 callsubr
          9 -392 rmoveto
          -104 callgsubr
        </CharString>
        <CharString name="Agrave">
          -73 callsubr
          50 112 202 callsubr
          321 96 callsubr
          -80 -439 -105 callsubr
        </CharString>
        <CharString name="Agrave.sc">
          -72 callgsubr
          73 111 204 callgsubr
          285 95 callgsubr
          -60 -383 rmoveto
          -104 callgsubr
        </CharString>
        <CharString name="Amacron">
          -73 callsubr
          73 57 hstem
          146 248 vstem
          394 786 181 callsubr
          -222 -462 -105 callsubr
        </CharString>
        <CharString name="Amacron.sc">
          -72 callgsubr
          95 57 hstem
          110 248 vstem
          358 670 181 callsubr
          -202 -405 rmoveto
          -104 callgsubr
        </CharString>
        <CharString name="Aogonek">
          -16 -212 59 174 -58 callgsubr
          hstem
          396 65 vstem
          172 267 rmoveto
          31 100 24 73 21 72 20 76 rlinecurve
          4 hlineto
          21 -76 21 -72 24 -73 31 -100 rcurveline
          180 -406 165 callgsubr
          -222 656 rlineto
          -94 hlineto
          -222 -656 rlineto
          85 hlineto
          63 200 rlineto
          239 hlineto
          62 -200 rlineto
          19 hlineto
          -34 -23 -41 -48 -54 124 callgsubr
          20 vhcurveto
          endchar
        </CharString>
        <CharString name="Aogonek.sc">
          -90 -212 59 174 -59 callsubr
          hstem
          323 65 vstem
          156 208 -3 callgsubr
          164 -347 165 callgsubr
          -186 518 rlineto
          -94 hlineto
          -185 -518 rlineto
          84 hlineto
          48 146 rlineto
          197 hlineto
          48 -146 rlineto
          18 hlineto
          -34 -23 -41 -48 -54 124 callgsubr
          19 vhcurveto
          endchar
        </CharString>
        <CharString name="Aring">
          -73 callsubr
          43 36 103 37 hstem
          177 45 95 47 vstem
          270 838 rmoveto
          26 21 -20 -31 -33 -21 -19 -26 -26 -22 19 33 31 22 20 26 hvcurveto
          -139 vmoveto
          53 41 34 54 53 -41 35 -53 -54 -39 -35 -53 -54 39 -34 54 hvcurveto
          -98 -432 -105 callsubr
        </CharString>
        <CharString name="Aring.sc">
          -72 callgsubr
          65 37 102 37 hstem
          140 46 95 46 vstem
          234 722 rmoveto
          25 22 -19 -32 -33 -22 -18 -25 -27 -21 18 33 32 21 19 27 hvcurveto
          -139 vmoveto
          165 callsubr
          -78 -375 rmoveto
          -104 callgsubr
        </CharString>
        <CharString name="Atilde">
          -73 callsubr
          55 163 callsubr
          126 45 198 46 hintmask 11110110
          369 819 rmoveto
          -33 -5 27 callgsubr
          hintmask 11101110
          -48 -31 -46 -62 -5 200 callsubr
          37 29 -52 53 hhcurveto
          hintmask 11110110
          47 31 47 61 6 hvcurveto
          -243 -552 -105 callsubr
        </CharString>
        <CharString name="Atilde.sc">
          -72 callgsubr
          78 163 callsubr
          89 46 198 45 hintmask 11110110
          333 704 rmoveto
          244 callgsubr
          hintmask 11101110
          -48 72 callgsubr
          37 29 -52 53 hhcurveto
          hintmask 11110110
          48 31 46 62 5 hvcurveto
          -222 -496 rmoveto
          -104 callgsubr
        </CharString>
        <CharString name="B">
          28 0 66 248 62 214 66 hstemhm
          90 83 255 82 -44 82 hintmask 11110100
          138 callgsubr
          hintmask 11111000
          21 callsubr
          hintmask 11110100
          222 callgsubr
          endchar
        </CharString>
        <CharString name="B.sc">
          -34 0 62 181 56 157 62 hstemhm
          90 83 205 77 -50 80 hintmask 11110100
          153 callsubr
          hintmask 11111000
          35 callgsubr
          hintmask 11110100
          92 50 -28 -59 -68 -56 -26 -86 hvcurveto
          endchar
        </CharString>
        <CharString name="B.sups">
          -168 266 49 156 45 134 48 hstemhm
          57 63 162 61 -37 61 hintmask 11110100
          57 266 rmoveto
          144 hlineto
          97 69 42 85 59 -36 34 -64 11 hvcurveto
          2 vlineto
          hintmask 11111000
          51 14 25 38 42 vvcurveto
          76 -63 29 -89 vhcurveto
          -134 hlineto
          63 -182 rmoveto
          134 64 vlineto
          65 33 -20 -44 -45 -29 -25 -71 hvcurveto
          -62 -201 rmoveto
          156 73 vlineto
          hintmask 11110100
          73 40 -24 -51 -57 -41 -24 -72 hvcurveto
          endchar
        </CharString>
        <CharString name="C">
          11 -12 73 534 73 hstem
          52 86 -91 callsubr
          endchar
        </CharString>
        <CharString name="C.sc">
          -57 -22 callsubr
          hstem
          52 85 -89 callsubr
          endchar
        </CharString>
        <CharString name="C.sups">
          -181 258 54 340 54 hstem
          32 65 vstem
          32 481 rmoveto
          -141 83 -82 110 57 44 23 40 34 vhcurveto
          -35 38 rlineto
          -30 -26 -31 -17 -40 hhcurveto
          -80 -51 66 105 103 54 66 80 34 27 -15 -23 24 hvcurveto
          35 38 rlineto
          30 -26 -42 24 -54 hhcurveto
          -111 -86 -86 -139 hvcurveto
          endchar
        </CharString>
        <CharString name="Cacute">
          11 -12 73 534 73 38 112 hstem
          52 86 -91 callsubr
          409 490 -60 callsubr
          endchar
        </CharString>
        <CharString name="Cacute.sc">
          -57 14 callsubr
          hstem
          52 85 -89 callsubr
          374 444 -47 callsubr
          endchar
        </CharString>
        <CharString name="Ccaron">
          11 -12 73 534 73 38 112 hstem
          52 86 -91 callsubr
          347 490 rmoveto
          -67 -68 rlineto
          -4 hlineto
          -67 68 rlineto
          -66 194 callgsubr
        </CharString>
        <CharString name="Ccaron.sc">
          -57 14 callsubr
          hstem
          52 85 -89 callsubr
          312 444 rmoveto
          188 callsubr
          80 27 callsubr
        </CharString>
        <CharString name="Ccedilla">
          11 -213 41 161 72 534 73 hstem
          52 86 209 64 vstem
          492 134 rmoveto
          -47 -42 -46 -26 -63 hhcurveto
          -124 -79 104 165 163 82 102 125 55 42 -24 -37 34 hvcurveto
          47 53 rlineto
          43 -38 -62 38 -79 hhcurveto
          -168 -124 -129 -211 -204 111 -124 154 -11 hvcurveto
          63 callgsubr
          40 68 8 55 33 45 52 rlinecurve
          endchar
        </CharString>
        <CharString name="Ccedilla.sc">
          -57 -213 41 162 68 402 70 hstem
          52 85 161 64 vstem
          425 113 rmoveto
          -35 -33 -38 -20 -52 hhcurveto
          -102 -63 76 126 124 67 76 102 45 33 -18 -29 29 hvcurveto
          47 51 rlineto
          35 -35 -54 31 -66 hhcurveto
          -144 -109 -103 -169 -161 90 -95 126 -12 hvcurveto
          -33 -65 rlineto
          41 -10 22 234 callsubr
          -36 -14 -52 -7 vhcurveto
          8 96 callgsubr
          19 39 61 5 48 26 40 43 rlinecurve
          endchar
        </CharString>
        <CharString name="Ccircumflex">
          11 -12 73 534 73 38 112 hstem
          52 86 -91 callsubr
          209 378 -74 callgsubr
          -79 hlineto
          -96 -112 rlineto
          endchar
        </CharString>
        <CharString name="Ccircumflex.sc">
          -57 14 callsubr
          hstem
          52 85 -89 callsubr
          174 333 -82 callgsubr
          endchar
        </CharString>
        <CharString name="Cdotaccent">
          11 -12 73 534 73 46 107 hstem
          52 86 135 114 -91 callsubr
          278 386 rmoveto
          -54 callgsubr
        </CharString>
        <CharString name="Cdotaccent.sc">
          -57 -22 callsubr
          68 108 hstem
          52 85 101 114 -89 callsubr
          243 340 -19 callgsubr
        </CharString>
        <CharString name="D">
          55 0 68 520 68 hstem
          90 83 305 86 vstem
          -75 callgsubr
          endchar
        </CharString>
        <CharString name="D.sc">
          -5 0 65 387 66 hstem
          90 83 244 86 vstem
          -71 callgsubr
          endchar
        </CharString>
        <CharString name="D.sups">
          -149 266 51 331 50 hstem
          57 63 193 65 130 callsubr
          115 hlineto
          132 74 79 140 138 -74 75 -135 hvcurveto
          -112 hlineto
          63 -381 rmoveto
          331 46 vlineto
          97 50 -55 -109 -108 -49 -59 -96 hvcurveto
          endchar
        </CharString>
        <CharString name="Dcaron">
          55 0 68 520 68 50 112 hstem
          90 83 305 86 vstem
          -75 callgsubr
          129 750 -86 callsubr
          -10 callsubr
          80 36 callsubr
        </CharString>
        <CharString name="Dcaron.sc">
          -6 0 65 387 66 73 111 hstem
          90 83 244 86 vstem
          -71 callgsubr
          117 637 14 callgsubr
          -7 callgsubr
          79 27 callsubr
        </CharString>
        <CharString name="Dcroat">
          -37 callgsubr
        </CharString>
        <CharString name="Dcroat.sc">
          -32 callgsubr
        </CharString>
        <CharString name="E">
          -59 callgsubr
          hstem
          90 83 vstem
          -97 callsubr
          endchar
        </CharString>
        <CharString name="E.sc">
          -60 callgsubr
          hstem
          90 83 vstem
          -97 callgsubr
          endchar
        </CharString>
        <CharString name="E.sups">
          -209 266 53 148 52 127 52 hstem
          57 63 130 callsubr
          262 53 -199 148 164 52 -164 127 193 52 -256 hlineto
          endchar
        </CharString>
        <CharString name="Eacute">
          -59 callgsubr
          50 112 hstem
          90 83 vstem
          -97 callsubr
          325 162 -60 callsubr
          endchar
        </CharString>
        <CharString name="Eacute.sc">
          -60 callgsubr
          73 111 hstem
          90 83 vstem
          -97 callgsubr
          306 184 -47 callsubr
          endchar
        </CharString>
        <CharString name="Ebreve">
          -59 callgsubr
          52 47 hstem
          90 83 vstem
          -97 callsubr
          194 52 rmoveto
          80 37 54 56 6 hvcurveto
          -50 hlineto
          46 callsubr
          endchar
        </CharString>
        <CharString name="Ebreve.sc">
          -60 callgsubr
          74 47 hstem
          90 83 vstem
          -97 callgsubr
          175 74 rmoveto
          80 36 55 55 7 hvcurveto
          -51 hlineto
          -31 -6 -21 -32 -45 hhcurveto
          -45 -22 190 callsubr
        </CharString>
        <CharString name="Ecaron">
          -59 callgsubr
          50 112 hstem
          90 83 vstem
          -97 callsubr
          263 162 rmoveto
          -67 -68 rlineto
          -4 hlineto
          -67 68 rlineto
          -66 194 callgsubr
        </CharString>
        <CharString name="Ecaron.sc">
          -60 callgsubr
          73 111 hstem
          90 83 vstem
          -97 callgsubr
          244 184 rmoveto
          188 callsubr
          79 27 callsubr
        </CharString>
        <CharString name="Ecircumflex">
          -59 callgsubr
          50 112 hstem
          90 83 vstem
          -97 callsubr
          125 50 -74 callgsubr
          -79 hlineto
          -96 -112 rlineto
          endchar
        </CharString>
        <CharString name="Ecircumflex.sc">
          -60 callgsubr
          73 111 hstem
          90 83 vstem
          -97 callgsubr
          106 73 -3 callsubr
          endchar
        </CharString>
        <CharString name="Edieresis">
          -59 callgsubr
          59 98 hstemhm
          90 83 -24 98 75 98 hintmask 11101000
          -97 callsubr
          hintmask 11110110
          108 59 rmoveto
          -13 callgsubr
          -28 -21 -20 -29 -10 callgsubr
          173 hmoveto
          28 21 21 28 201 callgsubr
          185 callsubr
          endchar
        </CharString>
        <CharString name="Edieresis.sc">
          -60 callgsubr
          82 98 hstemhm
          90 83 -44 98 75 98 hintmask 11101000
          -97 callgsubr
          hintmask 11110110
          88 33 callsubr
        </CharString>
        <CharString name="Edotaccent">
          -59 callgsubr
          58 107 hstem
          90 83 54 114 vstem
          -97 callsubr
          194 58 rmoveto
          -54 callgsubr
        </CharString>
        <CharString name="Edotaccent.sc">
          -60 callgsubr
          80 108 hstem
          90 83 35 113 vstem
          -97 callgsubr
          175 80 rmoveto
          32 24 22 33 31 -24 22 -32 -32 -25 -22 -31 -33 25 -29 callsubr
        </CharString>
        <CharString name="Egrave">
          -59 callgsubr
          50 112 hstem
          90 83 vstem
          -97 callsubr
          176 50 17 callsubr
        </CharString>
        <CharString name="Egrave.sc">
          -60 callgsubr
          73 111 hstem
          90 83 vstem
          -97 callgsubr
          157 73 62 callgsubr
        </CharString>
        <CharString name="Emacron">
          -59 callgsubr
          73 57 hstemhm
          90 83 -13 248 hintmask 11111000
          -97 callsubr
          hintmask 11110100
          70 73 -54 callsubr
        </CharString>
        <CharString name="Emacron.sc">
          -60 callgsubr
          95 57 hstemhm
          90 83 -32 248 hintmask 11111000
          -97 callgsubr
          hintmask 11110100
          51 95 -54 callsubr
        </CharString>
        <CharString name="Eogonek">
          -33 -212 59 153 -45 callgsubr
          hstem
          90 83 145 65 vstem
          90 hmoveto
          303 hlineto
          -37 -24 -38 -46 -55 183 callgsubr
          35 13 15 19 128 callgsubr
          -13 -5 -15 hhcurveto
          -24 -24 15 31 53 46 48 46 6 hvcurveto
          3 71 -305 238 249 71 -249 206 295 70 -378 hlineto
          endchar
        </CharString>
        <CharString name="Eogonek.sc">
          -85 -212 59 153 -29 callgsubr
          hstem
          90 83 94 64 vstem
          90 hmoveto
          251 hlineto
          -37 -24 -37 -46 -55 vvcurveto
          -57 42 -30 53 -17 callgsubr
          53 46 48 46 6 hvcurveto
          3 66 -253 173 206 63 -206 150 243 66 -326 hlineto
          endchar
        </CharString>
        <CharString name="Eth">
          -37 callgsubr
        </CharString>
        <CharString name="Eth.sc">
          -32 callgsubr
        </CharString>
        <CharString name="Euro">
          -63 -12 66 181 48 67 49 185 66 hstem
          81 85 vstem
          442 125 rmoveto
          -46 -34 -35 -25 -49 hhcurveto
          -82 -53 68 113 -17 hvcurveto
          213 48 -218 hlineto
          -1 12 0 13 13 vvcurveto
          10 0 10 1 9 vhcurveto
          258 49 -254 hlineto
          115 16 55 70 88 hhcurveto
          42 33 -24 -35 28 hvcurveto
          49 47 rlineto
          44 -35 -54 34 -60 hhcurveto
          -131 -92 -94 -157 -23 hvcurveto
          -64 -5 rlineto
          -44 59 vlineto
          -1 -10 0 -11 -11 vvcurveto
          -12 0 -12 1 -12 vhcurveto
          -59 -4 rlineto
          -43 64 vlineto
          -156 23 89 -91 120 hhcurveto
          73 55 35 58 44 hvcurveto
          endchar
        </CharString>
        <CharString name="F">
          -66 21 -21 294 70 222 70 -36 callgsubr
          294 250 70 -250 222 295 70 -378 hlineto
          endchar
        </CharString>
        <CharString name="F.sc">
          -117 21 -21 223 64 163 68 -36 callgsubr
          223 207 64 -207 163 244 68 -327 hlineto
          endchar
        </CharString>
        <CharString name="F.sups">
          -230 455 53 138 52 hstem
          57 63 130 callsubr
          63 189 165 53 -165 138 194 52 -257 hlineto
          endchar
        </CharString>
        <CharString name="G">
          41 callsubr
          hstem
          52 86 336 76 vstem
          -100 callsubr
          endchar
        </CharString>
        <CharString name="G.sc">
          41 callgsubr
          hstem
          52 85 270 76 vstem
          -99 callsubr
          endchar
        </CharString>
        <CharString name="G.sups">
          -149 258 54 130 52 159 53 hstem
          32 65 216 57 vstem
          32 482 rmoveto
          -141 85 -83 115 59 49 23 28 30 vhcurveto
          185 -146 -52 89 -106 vlineto
          -15 -16 -29 -9 -30 hhcurveto
          -91 -50 66 106 103 55 66 85 43 27 -17 -22 21 hvcurveto
          36 40 rlineto
          26 -27 -41 26 -59 hhcurveto
          -118 -87 -85 -139 hvcurveto
          endchar
        </CharString>
        <CharString name="Gbreve">
          41 callsubr
          40 47 hstem
          52 86 336 76 vstem
          -100 callsubr
          302 380 63 callsubr
        </CharString>
        <CharString name="Gbreve.sc">
          41 callgsubr
          62 47 hstem
          52 85 270 76 vstem
          -99 callsubr
          256 334 rmoveto
          80 37 55 55 6 hvcurveto
          -50 hlineto
          40 callgsubr
          7 36 -55 80 hhcurveto
          endchar
        </CharString>
        <CharString name="Gcaron">
          41 callsubr
          38 112 hstem
          52 86 336 76 vstem
          -100 callsubr
          371 490 rmoveto
          -67 -68 rlineto
          -4 hlineto
          -67 173 callgsubr
        </CharString>
        <CharString name="Gcaron.sc">
          41 callgsubr
          61 111 hstem
          52 85 270 76 vstem
          -99 callsubr
          325 444 rmoveto
          188 callsubr
          80 27 callsubr
        </CharString>
        <CharString name="Gcircumflex">
          41 callsubr
          38 112 hstem
          52 86 336 76 vstem
          -100 callsubr
          233 378 30 callsubr
        </CharString>
        <CharString name="Gcircumflex.sc">
          41 callgsubr
          61 111 hstem
          52 85 270 76 vstem
          -99 callsubr
          187 333 -82 callgsubr
          endchar
        </CharString>
        <CharString name="Gdotaccent">
          41 callsubr
          46 107 hstem
          52 86 159 113 64 76 vstem
          -100 callsubr
          302 386 134 callsubr
        </CharString>
        <CharString name="Gdotaccent.sc">
          41 callgsubr
          68 108 hstem
          52 85 114 114 42 76 vstem
          -99 callsubr
          256 340 -19 callgsubr
        </CharString>
        <CharString name="H">
          92 21 -21 309 72 275 -20 hstem
          90 83 305 84 vstem
          -1 callgsubr
          endchar
        </CharString>
        <CharString name="H.sc">
          34 21 -21 235 72 211 -20 hstem
          90 83 248 83 vstem
          -2 callsubr
          endchar
        </CharString>
        <CharString name="H.sups">
          -126 467 53 hstem
          57 63 195 63 130 callsubr
          63 201 195 -201 63 432 -63 -178 -195 178 -63 hlineto
          endchar
        </CharString>
        <CharString name="Hbar">
          127 21 -21 309 72 111 47 -47 164 hstemhm
          110 83 305 84 hintmask 11101100
          498 381 rmoveto
          -305 111 305 hlineto
          156 47 rmoveto
          -72 hlineto
          hintmask 11011100
          117 -84 vlineto
          hintmask 11101100
          -117 -305 vlineto
          hintmask 11011100
          117 -83 vlineto
          hintmask 11101100
          -117 vlineto
          -78 -5 rlineto
          -42 78 -492 83 309 305 -309 84 492 72 vlineto
          endchar
        </CharString>
        <CharString name="Hbar.sc">
          70 21 -21 239 65 80 46 -46 134 hstemhm
          110 83 248 83 hintmask 11011100
          441 304 rmoveto
          -248 80 248 hlineto
          hintmask 11101100
          157 46 rmoveto
          -74 hlineto
          hintmask 11011100
          88 -83 vlineto
          hintmask 11101100
          -88 -248 vlineto
          hintmask 11011100
          88 -83 vlineto
          hintmask 11101100
          -88 vlineto
          -78 -5 rlineto
          hintmask 11011100
          -41 78 -384 83 239 248 -239 83 384 74 vlineto
          endchar
        </CharString>
        <CharString name="Hcircumflex">
          92 21 -21 309 72 275 -20 70 112 hstem
          90 83 305 84 vstem
          -1 callgsubr
          167 50 rmoveto
          66 -65 callgsubr
          -79 hlineto
          -96 -112 rlineto
          endchar
        </CharString>
        <CharString name="Hcircumflex.sc">
          34 21 -21 235 72 211 -20 93 111 hstem
          90 83 248 83 vstem
          -2 callsubr
          138 73 -82 callgsubr
          endchar
        </CharString>
        <CharString name="I">
          -297 44 callgsubr
          -36 callgsubr
          656 -83 hlineto
          endchar
        </CharString>
        <CharString name="I.a">
          42 callsubr
          hstem
          130 83 vstem
          -83 callgsubr
          endchar
        </CharString>
        <CharString name="I.sc">
          -297 43 callsubr
          hstem
          90 83 vstem
          145 callsubr
          endchar
        </CharString>
        <CharString name="I.sups">
          -384 266 432 hstem
          57 63 130 callsubr
          63 432 -63 hlineto
          endchar
        </CharString>
        <CharString name="Iacute">
          -2 callgsubr
          172 162 -60 callsubr
          endchar
        </CharString>
        <CharString name="Iacute.a">
          42 callsubr
          50 112 hstem
          130 83 vstem
          -83 callgsubr
          257 747 -60 callsubr
          endchar
        </CharString>
        <CharString name="Iacute.sc">
          -1 callsubr
          172 184 -47 callsubr
          endchar
        </CharString>
        <CharString name="Icircumflex">
          -2 callgsubr
          -28 50 -74 callgsubr
          -79 hlineto
          -96 -112 rlineto
          endchar
        </CharString>
        <CharString name="Icircumflex.a">
          42 callsubr
          50 112 hstem
          130 83 vstem
          -83 callgsubr
          57 635 -74 callgsubr
          -80 hlineto
          -96 -10 callsubr
          endchar
        </CharString>
        <CharString name="Icircumflex.sc">
          -1 callsubr
          -28 73 20 callsubr
          67 hlineto
          -96 111 rlineto
          -79 hlineto
          -96 -7 callgsubr
          endchar
        </CharString>
        <CharString name="Idieresis">
          -297 44 callgsubr
          79 98 hstemhm
          -4 98 -4 83 -4 98 hintmask 11101000
          90 hmoveto
          83 656 -83 hlineto
          hintmask 11110100
          -45 59 rmoveto
          -13 callgsubr
          -28 -21 -20 -29 -10 callgsubr
          173 hmoveto
          28 21 21 28 201 callgsubr
          185 callsubr
          endchar
        </CharString>
        <CharString name="Idieresis.a">
          42 callsubr
          59 98 hstemhm
          37 98 -5 83 -4 98 hintmask 11001000
          -83 callgsubr
          hintmask 11110100
          40 644 -67 callgsubr
        </CharString>
        <CharString name="Idieresis.sc">
          -297 43 callsubr
          102 98 hstemhm
          -4 98 -4 83 -4 98 hintmask 11101000
          145 callsubr
          hintmask 11110100
          -45 82 rmoveto
          -6 callsubr
          173 hmoveto
          28 21 20 29 201 callgsubr
          -29 20 -20 29 hvcurveto
          endchar
        </CharString>
        <CharString name="Idotaccent">
          -297 44 callgsubr
          78 107 -36 callgsubr
          656 -83 hlineto
          41 58 rmoveto
          32 25 -45 callsubr
          -25 22 -32 -32 -24 -22 -31 -32 24 -29 callsubr
        </CharString>
        <CharString name="Idotaccent.a">
          42 callsubr
          58 107 hstemhm
          115 114 -99 83 hintmask 11001000
          -83 callgsubr
          hintmask 11110000
          126 643 rmoveto
          -54 callgsubr
        </CharString>
        <CharString name="Idotaccent.sc">
          -297 43 callsubr
          100 108 hstemhm
          75 113 -98 83 hintmask 11101000
          145 callsubr
          hintmask 11110000
          41 80 134 callgsubr
        </CharString>
        <CharString name="Igrave">
          -2 callgsubr
          24 50 rmoveto
          69 hlineto
          -89 112 rlineto
          -94 hlineto
          endchar
        </CharString>
        <CharString name="Igrave.a">
          42 callsubr
          50 112 hstem
          130 83 vstem
          -83 callgsubr
          108 635 17 callsubr
        </CharString>
        <CharString name="Igrave.sc">
          -1 callsubr
          24 73 rmoveto
          69 hlineto
          -89 111 rlineto
          -94 hlineto
          endchar
        </CharString>
        <CharString name="Imacron">
          -297 44 callgsubr
          93 57 -36 callgsubr
          656 -83 hlineto
          -83 73 -54 callsubr
        </CharString>
        <CharString name="Imacron.a">
          42 callsubr
          73 57 hstem
          130 83 vstem
          -83 callgsubr
          2 658 -54 callsubr
        </CharString>
        <CharString name="Imacron.sc">
          -297 43 callsubr
          115 57 hstem
          90 83 vstem
          145 callsubr
          -83 95 -54 callsubr
        </CharString>
        <CharString name="Iogonek">
          -297 215 callsubr
          656 6 callgsubr
          656 -83 vlineto
          endchar
        </CharString>
        <CharString name="Iogonek.a">
          -216 -212 59 153 71 515 70 hstemhm
          82 64 -16 83 hintmask 11110000
          46 hmoveto
          104 hlineto
          -32 -26 -36 -45 -54 vvcurveto
          -57 43 -30 52 -17 callgsubr
          38 24 38 39 31 hvcurveto
          hintmask 01101000
          87 71 -83 515 83 70 -250 -70 84 -515 hlineto
          hintmask 01110000
          -84 hlineto
          endchar
        </CharString>
        <CharString name="Iogonek.sc">
          -297 215 callsubr
          518 6 callgsubr
          518 -83 vlineto
          endchar
        </CharString>
        <CharString name="Itilde">
          -297 44 callgsubr
          75 163 callsubr
          -13 45 58 83 58 45 hintmask 11010100
          90 hmoveto
          83 656 -83 hlineto
          hintmask 11101110
          102 55 rmoveto
          47 31 47 61 6 hvcurveto
          -45 hlineto
          -33 -6 27 callgsubr
          hintmask 11011100
          -47 -31 -46 -62 -6 200 callsubr
          hhcurveto
          hintmask 11101110
          37 callgsubr
        </CharString>
        <CharString name="Itilde.a">
          42 callsubr
          55 163 callsubr
          46 27 57 83 58 46 hintmask 11011100
          -83 callgsubr
          hintmask 11101110
          186 640 rmoveto
          hintmask 11011110
          216 callgsubr
          -46 hlineto
          hintmask 11101110
          20 callgsubr
          hintmask 11011100
          241 callgsubr
          16 18 19 hhcurveto
          hintmask 11101110
          37 callgsubr
        </CharString>
        <CharString name="Itilde.sc">
          -297 43 callsubr
          98 163 callsubr
          -13 45 58 83 58 45 hintmask 11010100
          145 callsubr
          hintmask 11101110
          102 78 rmoveto
          47 31 46 62 6 hvcurveto
          -45 hlineto
          -33 -6 27 callgsubr
          hintmask 11011100
          -47 -31 -47 -61 -6 hvcurveto
          45 hlineto
          33 6 15 19 20 hhcurveto
          hintmask 11101110
          37 callgsubr
        </CharString>
        <CharString name="J">
          -80 28 callsubr
          45 callsubr
          endchar
        </CharString>
        <CharString name="J.sc">
          -122 -12 71 459 -20 47 callgsubr
          endchar
        </CharString>
        <CharString name="J.sups">
          -239 258 54 hstem
          203 63 vstem
          18 329 rmoveto
          -46 26 39 -25 57 hhcurveto
          89 37 62 77 hvcurveto
          301 -63 -296 vlineto
          -65 -23 -25 -45 -30 -24 15 33 -19 vhcurveto
          endchar
        </CharString>
        <CharString name="Jcircumflex">
          -80 28 callsubr
          70 112 45 callsubr
          188 571 30 callsubr
        </CharString>
        <CharString name="Jcircumflex.sc">
          -122 -12 71 459 -20 93 111 47 callgsubr
          145 474 -82 callgsubr
          endchar
        </CharString>
        <CharString name="K">
          19 44 callgsubr
          hstem
          90 83 vstem
          -26 callsubr
          endchar
        </CharString>
        <CharString name="K.sc">
          -46 43 callsubr
          hstem
          90 83 vstem
          -18 callsubr
          endchar
        </CharString>
        <CharString name="K.sups">
          -173 266 432 hstem
          57 63 130 callsubr
          63 136 hlineto
          72 84 126 -220 rlineto
          69 hlineto
          -157 268 136 164 rlineto
          -70 hlineto
          -174 -209 rlineto
          -2 209 -63 hlineto
          endchar
        </CharString>
        <CharString name="L">
          -74 0 71 585 -20 hstem
          90 83 70 callgsubr
          endchar
        </CharString>
        <CharString name="L.sc">
          -123 0 69 449 -20 hstem
          90 83 70 callsubr
          endchar
        </CharString>
        <CharString name="L.sups">
          -235 266 53 hstem
          57 63 130 callsubr
          251 53 -188 379 -63 hlineto
          endchar
        </CharString>
        <CharString name="Lacute">
          -74 0 71 585 -20 70 112 hstem
          90 83 70 callgsubr
          175 162 -60 callsubr
          endchar
        </CharString>
        <CharString name="Lacute.sc">
          -123 0 69 449 -20 93 111 hstem
          90 83 70 callsubr
          178 184 -47 callsubr
          endchar
        </CharString>
        <CharString name="Lcaron">
          -74 0 71 443 212 -70 -20 hstemhm
          90 83 158.5 49.5 hintmask 10111000
          222 callsubr
          hintmask 11011000
          284 -142 rmoveto
          156 callgsubr
          3 248 callgsubr
        </CharString>
        <CharString name="Lcaron.sc">
          -123 0 69 333 212 -96 -20 hstemhm
          90 83 137 49 hintmask 10111000
          223 callgsubr
          hintmask 11011000
          262 -116 rmoveto
          14 154 1 58 rlineto
          -59 hlineto
          4 248 callgsubr
        </CharString>
        <CharString name="Ldot">
          -74 0 71 192 125 268 -20 hstem
          90 83 144 119 70 callgsubr
          227 -331 133 callsubr
        </CharString>
        <CharString name="Ldot.sc">
          -123 0 69 156 126 167 -20 hstem
          90 83 115 120 70 callsubr
          198 -231 rmoveto
          -36 27 243 callgsubr
          -33 -27 -26 -38 vhcurveto
          endchar
        </CharString>
        <CharString name="Lslash">
          -71 0 71 585 -20 hstem
          95 84 vstem
          179 71 rmoveto
          207 vlineto
          185 99 rlineto
          68 vlineto
          -185 -100 rlineto
          311 -84 -348 vlineto
          -82 -47 rlineto
          -67 vlineto
          82 46 rlineto
          -240 370 71 vlineto
          endchar
        </CharString>
        <CharString name="Lslash.sc">
          -123 0 69 449 -20 hstem
          95 84 vstem
          179 69 rmoveto
          143 vlineto
          155 83 rlineto
          66 vlineto
          -155 -84 rlineto
          241 -84 -279 vlineto
          -82 -46 rlineto
          -65 vlineto
          82 46 rlineto
          -174 320 69 vlineto
          endchar
        </CharString>
        <CharString name="M">
          167 21 -21 66 104 385 101 hstem
          90 77 391 -15 callgsubr
          endchar
        </CharString>
        <CharString name="M.sc">
          87 21 -21 50 101 269 98 hstem
          90 75 317 -8 callsubr
          endchar
        </CharString>
        <CharString name="M.sups">
          -74 308 80 233 77 hstem
          57 58 256 59 130 callsubr
          58 225 hlineto
          38 -5 54 -3 38 vhcurveto
          2 hlineto
          36 -97 82 -216 rlineto
          33 hlineto
          81 216 35 97 rlineto
          3 hlineto
          -3 -38 -5 -54 -38 vvcurveto
          -225 59 432 -73 vlineto
          -80 -224 -30 -86 rlineto
          -3 hlineto
          -31 86 -83 224 rlineto
          -73 hlineto
          endchar
        </CharString>
        <CharString name="N">
          87 0 110 callsubr
          309 79 hintmask 01011100
          105 callgsubr
          hintmask 01101100
          -80 callsubr
          hintmask 10011100
          -66 callgsubr
          endchar
        </CharString>
        <CharString name="N.sc">
          25 0 140 callgsubr
          251 77 hintmask 01011100
          107 callgsubr
          hintmask 01101100
          -80 callgsubr
          hintmask 10011100
          -67 callsubr
          endchar
        </CharString>
        <CharString name="N.sups">
          -129 266 80 273 79 hstem
          57 58 201 58 130 callsubr
          58 216 hlineto
          45 -3 48 -3 44 vhcurveto
          2 hlineto
          47 -89 151 -264 rlineto
          65 432 -58 -211 hlineto
          -47 4 -51 3 -43 vhcurveto
          -3 hlineto
          -46 90 -151 262 rlineto
          -66 hlineto
          endchar
        </CharString>
        <CharString name="Nacute">
          87 0 7 callsubr
          70 112 hstemhm
          90 79 309 79 hintmask 01011110
          105 callgsubr
          hintmask 01101110
          -80 callsubr
          hintmask 10011110
          -66 callgsubr
          368 162 rmoveto
          -95 hlineto
          -88 -10 callsubr
          69 hlineto
          endchar
        </CharString>
        <CharString name="Nacute.sc">
          25 0 45 callgsubr
          93 111 hstemhm
          90 77 251 77 hintmask 01011110
          107 callgsubr
          hintmask 01101110
          -80 callgsubr
          hintmask 10011110
          -67 callsubr
          342 184 -47 callsubr
          endchar
        </CharString>
        <CharString name="Ncaron">
          87 0 7 callsubr
          70 112 hstemhm
          90 79 309 79 hintmask 01011110
          105 callgsubr
          hintmask 01101110
          -80 callsubr
          hintmask 10011110
          -66 callgsubr
          305 162 rmoveto
          -66 -68 rlineto
          -4 hlineto
          -67 173 callgsubr
        </CharString>
        <CharString name="Ncaron.sc">
          25 0 45 callgsubr
          93 111 hstemhm
          90 77 251 77 hintmask 01011110
          107 callgsubr
          hintmask 01101110
          -80 callgsubr
          hintmask 10011110
          -67 callsubr
          280 184 rmoveto
          188 callsubr
          80 27 callsubr
        </CharString>
        <CharString name="Ntilde">
          87 0 7 callsubr
          75 163 callsubr
          90 79 13 45 199 45 7 79 hintmask 0101011001000000
          105 callgsubr
          hintmask 0110011001000000
          -80 callsubr
          hintmask 1001011001000000
          -66 callgsubr
          hintmask 0101101110000000
          297 55 rmoveto
          47 31 47 61 6 hvcurveto
          -45 hlineto
          -33 -6 27 callgsubr
          hintmask 0101011101000000
          -47 -31 -46 -62 -6 200 callsubr
          hhcurveto
          hintmask 0101101110000000
          37 callgsubr
        </CharString>
        <CharString name="Ntilde.sc">
          25 0 45 callgsubr
          98 163 callsubr
          90 77 -11 46 198 45 -27 77 hintmask 0101101001000000
          107 callgsubr
          hintmask 0110101001000000
          -80 callgsubr
          hintmask 1001101001000000
          -67 callsubr
          hintmask 0101100110000000
          271 78 97 callgsubr
          -36 -30 52 -52 hhcurveto
          -48 -31 -47 -61 170 callgsubr
          hintmask 0101010101000000
          33 5 16 19 19 hhcurveto
          hintmask 0101100110000000
          37 callgsubr
        </CharString>
        <CharString name="O">
          -36 callsubr
          hstem
          52 86 388 87 vstem
          -106 callgsubr
          endchar
        </CharString>
        <CharString name="O.sc">
          32 callsubr
          hstem
          52 86 314 86 vstem
          -105 callgsubr
          endchar
        </CharString>
        <CharString name="O.sups">
          -117 258 54 341 53 hstem
          32 65 249 65 vstem
          221 258 rmoveto
          112 78 87 139 138 -78 84 -112 -111 -78 -83 -139 -139 78 -87 111 hvcurveto
          54 vmoveto
          -75 -49 68 104 104 49 65 75 76 49 -65 -104 -104 -49 -68 -76 hvcurveto
          endchar
        </CharString>
        <CharString name="OE">
          287 0 68 -68 -45 callgsubr
          hstemhm
          52 86 289 83 hintmask 01111100
          52 331 rmoveto
          -209 118 -122 199 vhcurveto
          429 71 -288 238 232 71 -232 206 278 70 -415 hlineto
          -203 -118 -117 -208 hvcurveto
          hintmask 10111100
          86 hmoveto
          166 83 91 158 vhcurveto
          48 -520 -48 hlineto
          -158 -83 96 167 hvcurveto
          endchar
        </CharString>
        <CharString name="OE.sc">
          175 0 -29 callgsubr
          hstem
          52 86 226 83 vstem
          52 257 rmoveto
          -170 101 -87 175 vhcurveto
          358 66 -239 173 192 63 -192 150 229 66 -352 hlineto
          -171 -101 -90 -171 hvcurveto
          312 196 rmoveto
          -387 -38 vlineto
          -128 -60 70 121 128 60 68 128 hvcurveto
          endchar
        </CharString>
        <CharString name="Oacute">
          -36 callsubr
          38 112 hstem
          52 86 388 87 vstem
          -106 callgsubr
          131 757 -60 callsubr
          endchar
        </CharString>
        <CharString name="Oacute.sc">
          29 14 callsubr
          hstem
          52 86 314 86 vstem
          -105 callgsubr
          131 644 -47 callsubr
          endchar
        </CharString>
        <CharString name="Ocircumflex">
          -36 callsubr
          38 112 hstem
          52 86 388 87 vstem
          -106 callgsubr
          -69 645 -74 callgsubr
          -80 hlineto
          -96 -10 callsubr
          endchar
        </CharString>
        <CharString name="Ocircumflex.sc">
          29 14 callsubr
          hstem
          52 86 314 86 vstem
          -105 callgsubr
          -69 533 -82 callgsubr
          endchar
        </CharString>
        <CharString name="Odieresis">
          -36 callsubr
          47 98 hstem
          52 86 59 98 74 98 59 87 vstem
          -106 callgsubr
          -86 654 -67 callgsubr
        </CharString>
        <CharString name="Odieresis.sc">
          32 callsubr
          70 98 hstemhm
          52 86 22 98 74 98 22 86 hintmask 11010010
          -105 callgsubr
          hintmask 11111110
          -86 542 35 callsubr
        </CharString>
        <CharString name="Ograve">
          -36 callsubr
          38 112 hstem
          52 86 388 87 vstem
          -106 callgsubr
          -18 645 17 callsubr
        </CharString>
        <CharString name="Ograve.sc">
          29 14 callsubr
          hstem
          52 86 314 86 vstem
          -105 callgsubr
          -18 533 62 callgsubr
        </CharString>
        <CharString name="Ohorn">
          -36 callsubr
          hstemhm
          54 86 389 86 -69 68 hintmask 11110000
          335 61 -71 callsubr
          hintmask 11101000
          -87 callgsubr
          hintmask 11110000
          -12 callgsubr
          hintmask 11101000
          62 15 40 33 57 -76 callgsubr
        </CharString>
        <CharString name="Ohorn.sc">
          32 callsubr
          hstemhm
          52 86 314 86 -40 68 hintmask 11110000
          295 58 rmoveto
          -96 -61 78 125 124 61 75 96 95 62 -75 -124 -125 -62 -78 -95 hvcurveto
          hintmask 11101000
          -84 callgsubr
          hintmask 11110000
          13 callsubr
          hintmask 11101000
          3 callgsubr
        </CharString>
        <CharString name="Ohungarumlaut">
          -36 callsubr
          38 112 hstem
          52 86 388 87 vstem
          -106 callgsubr
          -49 645 95 callsubr
          60 hlineto
          83 112 rlineto
          -77 hlineto
          endchar
        </CharString>
        <CharString name="Ohungarumlaut.sc">
          29 14 callsubr
          hstem
          52 86 314 86 vstem
          -105 callgsubr
          -49 533 rmoveto
          83 111 rlineto
          -77 hlineto
          -66 -7 callgsubr
          158 226 callgsubr
        </CharString>
        <CharString name="Omacron">
          -36 callsubr
          61 57 hstem
          52 86 70 248 70 87 vstem
          -106 callgsubr
          -124 668 -54 callsubr
        </CharString>
        <CharString name="Omacron.sc">
          32 callsubr
          83 57 hstem
          52 86 33 248 33 86 vstem
          -105 callgsubr
          -124 555 -54 callsubr
        </CharString>
        <CharString name="Oslash">
          104 -12 73 -52 -21 607 73 hstemhm
          54 86 389 86 hintmask 10111000
          496 491 rmoveto
          21 -42 12 -54 -64 vvcurveto
          -164 -77 -106 -117 -51 -43 20 35 -33 vhcurveto
          -34 51 rmoveto
          -22 44 -12 55 65 vvcurveto
          79 callgsubr
          118 51 43 -19 -35 33 vhcurveto
          157 110 rmoveto
          -46 35 -63 -81 rlineto
          41 -46 -61 22 -68 hhcurveto
          -165 -116 -127 -210 hvcurveto
          hintmask 01111000
          -96 24 -80 42 -58 vhcurveto
          -70 -91 rlineto
          hintmask 10111000
          46 -36 63 83 rlineto
          -42 47 60 -23 69 hhcurveto
          164 116 132 211 95 -24 78 -41 57 hvcurveto
          endchar
        </CharString>
        <CharString name="Oslash.sc">
          29 -12 67 -46 -21 475 67 hstemhm
          52 82 321 83 hintmask 10111000
          430 381 rmoveto
          16 -32 9 -40 -48 vvcurveto
          -127 -63 -79 -97 -43 -37 16 28 -27 vhcurveto
          -28 39 rmoveto
          -17 33 -9 41 49 vvcurveto
          126 63 76 98 43 37 -15 -28 27 vhcurveto
          141 93 rmoveto
          -37 29 -56 -65 rlineto
          34 -41 -53 19 -61 hhcurveto
          -143 -100 -101 -168 hvcurveto
          hintmask 01111000
          -76 20 -63 35 -46 vhcurveto
          -60 -70 rlineto
          hintmask 10111000
          36 -29 56 65 rlineto
          -35 41 54 -19 61 hhcurveto
          142 101 104 169 75 -20 62 -35 45 hvcurveto
          endchar
        </CharString>
        <CharString name="Otilde">
          -36 callsubr
          43 163 callsubr
          52 86 49 46 198 46 49 87 hintmask 11011001
          -106 callgsubr
          hintmask 11101011
          60 650 rmoveto
          hintmask 11011011
          216 callgsubr
          -46 hlineto
          hintmask 11101111
          20 callgsubr
          hintmask 11011101
          111 callsubr
          hhcurveto
          hintmask 11101011
          233 callgsubr
          endchar
        </CharString>
        <CharString name="Otilde.sc">
          132 callsubr
          hintmask 11011001
          -105 callgsubr
          hintmask 11101011
          60 538 rmoveto
          hintmask 11011011
          48 31 46 62 6 hvcurveto
          -46 hlineto
          hintmask 11101111
          20 callgsubr
          hintmask 11011101
          192 callsubr
          hhcurveto
          hintmask 11101011
          233 callgsubr
          endchar
        </CharString>
        <CharString name="P">
          16 21 -21 260 68 261 67 hstem
          90 83 277 83 vstem
          90 hmoveto
          83 260 118 hlineto
          144 98 65 138 144 -97 49 -145 hvcurveto
          -201 hlineto
          83 -328 rmoveto
          261 108 vlineto
          113 56 -31 -95 -93 -55 -42 -114 hvcurveto
          endchar
        </CharString>
        <CharString name="P.sc">
          -42 21 -21 196 60 196 66 hstem
          90 83 222 81 vstem
          90 hmoveto
          83 196 94 hlineto
          122 87 52 113 117 -86 40 -123 hvcurveto
          -177 hlineto
          83 -262 rmoveto
          196 86 vlineto
          92 44 -25 -70 -68 -42 -33 -92 hvcurveto
          endchar
        </CharString>
        <CharString name="P.sups">
          -175 434 50 164 50 hstem
          57 63 177 62 130 callsubr
          63 168 76 hlineto
          95 68 43 93 95 -66 33 -97 hvcurveto
          -139 hlineto
          63 -214 rmoveto
          164 69 vlineto
          72 36 -19 -59 -59 -35 -27 -73 hvcurveto
          endchar
        </CharString>
        <CharString name="Q">
          104 -164 70 86 65 538 73 hstem
          52 86 388 87 vstem
          138 331 rmoveto
          79 callgsubr
          117 117 77 -101 -163 -168 -77 -106 -117 -117 -77 106 168 vhcurveto
          473 -415 rmoveto
          -5 -18 -22 -5 -29 hhcurveto
          -71 -60 28 58 -30 hvcurveto
          139 24 93 126 189 vvcurveto
          209 -116 128 -165 -165 -115 -127 -210 -193 96 -127 143 -20 vhcurveto
          -90 38 83 -65 121 hhcurveto
          39 35 8 7 20 hvcurveto
          endchar
        </CharString>
        <CharString name="Q.sc">
          29 -152 67 76 63 406 70 hstem
          51 86 314 86 vstem
          137 261 rmoveto
          124 61 75 96 95 62 -75 -124 -128 -62 -79 -95 -96 -61 79 128 vhcurveto
          394 -337 rmoveto
          -5 -16 -19 -4 -24 hhcurveto
          -62 -48 21 55 -25 hvcurveto
          119 19 81 100 151 vvcurveto
          208 callsubr
          -151 80 -100 120 -19 vhcurveto
          -84 33 71 -59 108 hhcurveto
          35 31 5 9 18 hvcurveto
          endchar
        </CharString>
        <CharString name="Q.sups">
          -117 158 51 444 53 hstem
          31 65 249 65 vstem
          96 485 rmoveto
          103 49 65 75 76 49 -65 -103 -106 -49 -68 -76 -75 -49 68 106 vhcurveto
          313 -270 rmoveto
          -3 -12 -14 -3 -20 hhcurveto
          -46 -39 16 36 -21 hvcurveto
          92 18 61 82 124 vvcurveto
          137 -78 84 -112 -111 -78 -83 -138 -128 65 -83 95 -14 vhcurveto
          -60 26 57 -42 82 hhcurveto
          28 24 5 5 13 hvcurveto
          endchar
        </CharString>
        <CharString name="R">
          21 21 230 callsubr
          hstem
          90 83 269 83 vstem
          173 589 -42 callsubr
          371 -345 rmoveto
          -166 286 rlineto
          -83 callsubr
          endchar
        </CharString>
        <CharString name="R.sc">
          -37 21 -21 208 60 184 66 hstem
          90 83 216 79 vstem
          173 452 -23 callsubr
          314 -268 rmoveto
          -138 218 rlineto
          -72 callsubr
          endchar
        </CharString>
        <CharString name="R.sups">
          -171 445 50 153 50 hstem
          57 63 171 62 vstem
          120 648 rmoveto
          70 hlineto
          66 35 -20 -54 -53 -35 -26 -66 hvcurveto
          -70 hlineto
          248 -229 rmoveto
          -110 187 rlineto
          57 16 38 40 67 vvcurveto
          90 -66 32 -89 vhcurveto
          -141 -432 63 179 76 hlineto
          101 -179 rlineto
          endchar
        </CharString>
        <CharString name="Racute">
          135 callsubr
          425 85 callsubr
          -139 -117 -42 callsubr
          371 -345 rmoveto
          -166 286 rlineto
          -83 callsubr
          endchar
        </CharString>
        <CharString name="Racute.sc">
          138 callsubr
          413 702 -47 callsubr
          -127 -139 -23 callsubr
          314 -268 rmoveto
          -138 218 rlineto
          -72 callsubr
          endchar
        </CharString>
        <CharString name="Rcaron">
          135 callsubr
          334 166 callgsubr
          -67 hlineto
          96 -10 callsubr
          -81 -117 -42 callsubr
          371 -345 rmoveto
          -166 286 rlineto
          -83 callsubr
          endchar
        </CharString>
        <CharString name="Rcaron.sc">
          138 callsubr
          322 110 callgsubr
          -69 -139 -23 callsubr
          314 -268 rmoveto
          -138 218 rlineto
          -72 callsubr
          endchar
        </CharString>
        <CharString name="S">
          -26 -12 73 534 73 hstem
          74 84 252 -99 callgsubr
          endchar
        </CharString>
        <CharString name="S.sc">
          -86 232 callgsubr
          hstem
          72 83 197 84 vstem
          -101 callsubr
          endchar
        </CharString>
        <CharString name="S.sups">
          -204 258 55 341 53 hstem
          46 64 159 63 vstem
          26 323 rmoveto
          -41 40 54 -24 61 hhcurveto
          94 57 56 73 60 -34 27 -55 24 hvcurveto
          -63 27 rlineto
          -33 14 -37 16 39 vvcurveto
          36 29 24 47 41 31 -16 -24 28 vhcurveto
          33 39 rlineto
          32 -32 -48 22 -51 hhcurveto
          -82 -60 -50 -67 -63 46 -29 43 -19 hvcurveto
          63 -28 rlineto
          41 -17 30 -14 -41 vvcurveto
          -39 -30 -27 -55 -44 -45 19 33 -32 vhcurveto
          endchar
        </CharString>
        <CharString name="Sacute">
          -26 -12 73 534 73 38 112 hstem
          74 84 252 -99 callgsubr
          318 675 -60 callsubr
          endchar
        </CharString>
        <CharString name="Sacute.sc">
          -86 232 callgsubr
          61 111 hstem
          72 83 197 84 vstem
          -101 callsubr
          299 582 -47 callsubr
          endchar
        </CharString>
        <CharString name="Scaron">
          -26 -12 73 534 73 38 112 hstem
          74 84 252 -99 callgsubr
          256 675 -86 callsubr
          -10 callsubr
          80 36 callsubr
        </CharString>
        <CharString name="Scaron.sc">
          -86 232 callgsubr
          61 111 hstem
          72 83 197 84 vstem
          -101 callsubr
          237 582 rmoveto
          188 callsubr
          80 27 callsubr
        </CharString>
        <CharString name="Scircumflex">
          -26 -12 73 534 73 38 112 hstem
          74 84 252 -99 callgsubr
          118 563 -74 callgsubr
          -80 hlineto
          -96 -10 callsubr
          endchar
        </CharString>
        <CharString name="Scircumflex.sc">
          -86 232 callgsubr
          61 111 hstem
          72 83 197 84 vstem
          -101 callsubr
          99 471 -82 callgsubr
          endchar
        </CharString>
        <CharString name="T">
          -24 21 -21 586 70 hstem
          226 84 vstem
          9 callsubr
          endchar
        </CharString>
        <CharString name="T.sc">
          -93 21 -21 450 68 hstem
          192 83 vstem
          9 callgsubr
          endchar
        </CharString>
        <CharString name="T.sups">
          -204 646 52 hstem
          148 62 vstem
          148 266 rmoveto
          62 380 130 52 -323 -52 131 hlineto
          endchar
        </CharString>
        <CharString name="Tcaron">
          -24 21 -21 586 70 50 112 hstem
          226 84 vstem
          9 callsubr
          110 232 rmoveto
          -67 -68 -8 callgsubr
          -66 173 callgsubr
        </CharString>
        <CharString name="Tcaron.sc">
          -93 21 -21 450 68 73 111 hstem
          192 83 vstem
          9 callgsubr
          111 252 rmoveto
          188 callsubr
          79 27 callsubr
        </CharString>
        <CharString name="Thorn">
          23 21 -21 150 68 260 68 -68 178 hstemhm
          90 83 277 83 hintmask 11101100
          90 hmoveto
          83 150 118 hlineto
          144 98 64 139 143 -97 50 -145 hvcurveto
          -118 hlineto
          hintmask 11011100
          110 -83 vlineto
          83 -438 rmoveto
          hintmask 11101100
          260 108 vlineto
          113 56 -31 -94 -94 -55 -41 -114 hvcurveto
          endchar
        </CharString>
        <CharString name="Thorn.sc">
          -35 0 175 -63 63 194 63 -63 149 hstemhm
          90 83 220 83 hintmask 10011100
          90 hmoveto
          83 hlineto
          hintmask 01101100
          112 94 vlineto
          121 88 51 113 117 -87 39 -122 hvcurveto
          -94 hlineto
          hintmask 10011100
          86 -83 vlineto
          83 -343 rmoveto
          194 85 vlineto
          90 45 -23 -70 -70 -43 -31 -92 hvcurveto
          endchar
        </CharString>
        <CharString name="U">
          57 callgsubr
          hstem
          87 83 308 80 vstem
          -103 callsubr
          endchar
        </CharString>
        <CharString name="U.sc">
          56 callsubr
          hstem
          87 83 247 -93 callsubr
          endchar
        </CharString>
        <CharString name="U.sups">
          -129 258 54 hstem
          56 62 198 60 vstem
          56 449 rmoveto
          -140 65 -51 96 92 67 51 140 vhcurveto
          249 -60 -252 vlineto
          -102 -43 -32 -56 -57 -42 32 102 vhcurveto
          252 -62 vlineto
          endchar
        </CharString>
        <CharString name="Uacute">
          57 callgsubr
          70 112 hstem
          87 83 308 80 vstem
          -103 callsubr
          367 162 -60 callsubr
          endchar
        </CharString>
        <CharString name="Uacute.sc">
          56 callsubr
          93 111 hstem
          87 83 247 -93 callsubr
          336 184 224 callsubr
        </CharString>
        <CharString name="Ubreve">
          57 callgsubr
          72 47 hstem
          87 83 308 30 callgsubr
          52 63 callsubr
        </CharString>
        <CharString name="Ubreve.sc">
          56 callsubr
          94 47 hstem
          87 83 247 -93 callsubr
          205 74 rmoveto
          79 37 55 55 7 hvcurveto
          -51 hlineto
          -31 -6 -21 -32 -45 hhcurveto
          -46 -21 190 callsubr
        </CharString>
        <CharString name="Ucircumflex">
          57 callgsubr
          70 112 hstem
          87 83 308 80 vstem
          -103 callsubr
          167 50 30 callsubr
        </CharString>
        <CharString name="Ucircumflex.sc">
          56 callsubr
          93 111 hstem
          87 83 247 -93 callsubr
          136 73 -3 callsubr
          endchar
        </CharString>
        <CharString name="Udieresis">
          57 callgsubr
          79 98 hstemhm
          87 83 17 98 75 98 20 80 hintmask 11110010
          -103 callsubr
          hintmask 11111110
          149 59 rmoveto
          29 20 21 28 29 -20 20 -29 -28 -21 -20 -29 -10 callgsubr
          173 hmoveto
          -13 callgsubr
          -28 -21 -20 -29 -10 callgsubr
          endchar
        </CharString>
        <CharString name="Udieresis.sc">
          56 callsubr
          102 98 hstemhm
          87 83 -14 98 75 98 -10 79 hintmask 11110010
          -102 callgsubr
          hintmask 11101100
          118 33 callsubr
        </CharString>
        <CharString name="Ugrave">
          57 callgsubr
          70 112 hstem
          87 83 308 80 vstem
          -103 callsubr
          218 50 17 callsubr
        </CharString>
        <CharString name="Ugrave.sc">
          56 callsubr
          93 111 hstem
          87 83 247 -93 callsubr
          187 73 62 callgsubr
        </CharString>
        <CharString name="Uhorn">
          99 28 callsubr
          hstem
          87 83 308 80 43 67 vstem
          586 764 -90 callsubr
        </CharString>
        <CharString name="Uhorn.sc">
          37 29 callgsubr
          hstem
          87 83 247 79 42 68 vstem
          524 626 -90 callgsubr
        </CharString>
        <CharString name="Uhungarumlaut">
          57 callgsubr
          70 112 hstem
          87 83 308 80 vstem
          -103 callsubr
          187 50 95 callsubr
          59 hlineto
          83 112 rlineto
          -77 hlineto
          endchar
        </CharString>
        <CharString name="Uhungarumlaut.sc">
          56 callsubr
          93 111 hstem
          87 83 247 -93 callsubr
          155 73 rmoveto
          84 111 rlineto
          -77 hlineto
          -66 -7 callgsubr
          157 226 callgsubr
        </CharString>
        <CharString name="Umacron">
          57 callgsubr
          93 57 hstemhm
          87 83 29 248 31 80 hintmask 11110100
          -103 callsubr
          hintmask 11111100
          112 73 -54 callsubr
        </CharString>
        <CharString name="Umacron.sc">
          56 callsubr
          115 57 hstemhm
          87 83 -2 248 1 79 hintmask 11110100
          -102 callgsubr
          hintmask 11101000
          81 95 -54 callsubr
        </CharString>
        <CharString name="Uogonek">
          85 -212 59 142 72 595 -20 hstem
          87 83 84 65 159 80 vstem
          87 271 rmoveto
          -202 94 -77 137 208 callgsubr
          27 34 13 15 19 128 callgsubr
          -13 -5 -15 hhcurveto
          -24 -24 15 31 33 27 42 52 25 hvcurveto
          95 45 65 56 177 vvcurveto
          385 -80 -387 vlineto
          -158 -68 -50 -87 -86 -67 50 158 vhcurveto
          387 -83 vlineto
          endchar
        </CharString>
        <CharString name="Uogonek.sc">
          23 -212 59 142 69 460 -20 hstem
          87 83 55 65 127 79 vstem
          496 518 rmoveto
          -79 -303 hlineto
          -119 -53 -38 -71 -71 -52 38 119 vhcurveto
          303 -83 -302 vlineto
          -166 82 -58 120 208 callgsubr
          26 34 13 15 19 vhcurveto
          -22 45 rlineto
          -9 -12 -13 -5 -16 hhcurveto
          -23 -24 15 31 33 27 42 52 25 hvcurveto
          75 36 52 46 141 vvcurveto
          endchar
        </CharString>
        <CharString name="Uring">
          57 callgsubr
          63 36 103 37 hstem
          87 83 59 46 95 46 62 30 callgsubr
          43 rmoveto
          53 40 34 54 53 -40 35 -53 -55 -39 -35 -53 -54 39 -34 55 116 callgsubr
        </CharString>
        <CharString name="Uring.sc">
          56 callsubr
          85 37 102 37 hstemhm
          87 83 28 45 95 47 32 79 hintmask 11111011
          -102 callgsubr
          hintmask 11111111
          205 65 rmoveto
          165 callsubr
          37 vmoveto
          -27 -22 18 33 32 22 19 27 25 21 -19 -32 -33 -21 -18 -25 hvcurveto
          endchar
        </CharString>
        <CharString name="Utilde">
          57 callgsubr
          75 163 callsubr
          87 83 8 46 198 45 11 80 hintmask 11101001
          -103 callsubr
          hintmask 11101111
          296 55 rmoveto
          48 31 47 61 5 hvcurveto
          -45 hlineto
          244 callgsubr
          hintmask 11011101
          241 callgsubr
          15 18 20 hhcurveto
          hintmask 11101111
          37 callgsubr
        </CharString>
        <CharString name="Utilde.sc">
          56 callsubr
          98 163 callsubr
          87 83 -23 46 198 45 -19 79 hintmask 11011001
          -102 callgsubr
          hintmask 11100110
          265 78 rmoveto
          47 31 46 62 6 hvcurveto
          -45 hlineto
          -33 -6 27 callgsubr
          hintmask 11010101
          -47 72 callgsubr
          hhcurveto
          hintmask 11100110
          37 callgsubr
        </CharString>
        <CharString name="V">
          -45 0 85 571 -20 hstem
          0 515 vstem
          210 hmoveto
          97 hlineto
          208 656 rlineto
          -85 hlineto
          -105 -354 -23 -78 -16 -62 -24 -77 rlinecurve
          -4 hlineto
          -25 77 -15 62 -24 78 -105 354 rcurveline
          -89 hlineto
          endchar
        </CharString>
        <CharString name="V.sc">
          -113 0 80 438 -20 hstem
          0 447 vstem
          176 hmoveto
          96 hlineto
          175 518 rlineto
          -84 hlineto
          -83 -268 -19 -60 -13 -50 -20 -60 rlinecurve
          -4 hlineto
          -19 60 -14 50 -19 60 -85 268 rcurveline
          -87 hlineto
          endchar
        </CharString>
        <CharString name="V.sups">
          -214 266 63 hstem
          -2 350 vstem
          138 266 rmoveto
          72 hlineto
          138 432 rlineto
          -64 hlineto
          -67 -227 -15 -50 -9 -42 -16 -50 rlinecurve
          -3 hlineto
          -16 50 -10 42 -15 50 -69 227 rcurveline
          -66 hlineto
          endchar
        </CharString>
        <CharString name="W">
          65 callgsubr
          hstemhm
          23 739 hintmask 10110000
          88 callgsubr
          hintmask 11010000
          -94 callsubr
          endchar
        </CharString>
        <CharString name="W.sc">
          66 callgsubr
          hstemhm
          23 637 hintmask 10110000
          87 callgsubr
          hintmask 11010000
          -94 callgsubr
          endchar
        </CharString>
        <CharString name="W.sups">
          -34 266 65 283 84 hstem
          13 500 vstem
          104 266 rmoveto
          76 hlineto
          61 250 7 33 7 32 7 33 rlinecurve
          2 hlineto
          7 -33 6 -32 8 -33 63 -250 rcurveline
          75 hlineto
          90 432 rlineto
          -60 hlineto
          -44 -228 -9 -46 -7 -47 -8 -46 rlinecurve
          -2 hlineto
          -11 46 -9 47 -11 46 -59 228 rcurveline
          -56 hlineto
          -59 -228 -11 -47 -9 -46 -9 -46 rlinecurve
          -3 hlineto
          -8 46 -8 46 -9 47 -43 228 rcurveline
          -65 hlineto
          endchar
        </CharString>
        <CharString name="Wacute">
          65 callgsubr
          70 112 hstemhm
          23 739 hintmask 10111000
          88 callgsubr
          hintmask 11011000
          -94 callsubr
          501 162 -60 callsubr
          endchar
        </CharString>
        <CharString name="Wacute.sc">
          66 callgsubr
          93 111 hstemhm
          23 637 hintmask 10111000
          87 callgsubr
          hintmask 11011000
          -94 callgsubr
          450 184 -47 callsubr
          endchar
        </CharString>
        <CharString name="Wcircumflex">
          65 callgsubr
          70 112 hstemhm
          23 739 hintmask 10111000
          88 callgsubr
          hintmask 11011000
          -94 callsubr
          301 50 -74 callgsubr
          -80 hlineto
          -96 -10 callsubr
          endchar
        </CharString>
        <CharString name="Wcircumflex.sc">
          66 callgsubr
          93 111 hstemhm
          23 637 hintmask 10111000
          87 callgsubr
          hintmask 11011000
          -94 callgsubr
          250 73 -82 callgsubr
          endchar
        </CharString>
        <CharString name="Wdieresis">
          65 callgsubr
          79 98 hstemhm
          258 98 74 98 hintmask 10111100
          88 callgsubr
          hintmask 11011100
          -94 callsubr
          284 59 -67 callgsubr
        </CharString>
        <CharString name="Wdieresis.sc">
          66 callgsubr
          102 98 hstemhm
          207 98 74 98 hintmask 10111100
          87 callgsubr
          hintmask 11011100
          -94 callgsubr
          233 82 35 callsubr
        </CharString>
        <CharString name="Wgrave">
          65 callgsubr
          70 112 hstemhm
          23 739 hintmask 10111000
          88 callgsubr
          hintmask 11011000
          -94 callsubr
          352 50 17 callsubr
        </CharString>
        <CharString name="Wgrave.sc">
          66 callgsubr
          93 111 hstemhm
          23 637 hintmask 10111000
          87 callgsubr
          hintmask 11011000
          -94 callgsubr
          301 73 62 callgsubr
        </CharString>
        <CharString name="X">
          -47 44 callgsubr
          hstem
          15 483 vstem
          15 hmoveto
          88 hlineto
          95 177 16 32 17 33 19 40 rlinecurve
          4 hlineto
          21 -40 18 -33 17 -32 96 -177 rcurveline
          92 hlineto
          -191 335 179 321 rlineto
          -88 hlineto
          -87 -168 -16 -30 -13 -27 -18 -38 rlinecurve
          -4 hlineto
          -20 38 -14 27 -17 30 -89 168 rcurveline
          -92 hlineto
          178 -317 rlineto
          endchar
        </CharString>
        <CharString name="X.sc">
          -107 43 callsubr
          hstem
          15 423 vstem
          15 hmoveto
          88 hlineto
          74 128 14 27 14 26 15 32 rlinecurve
          4 hlineto
          17 -32 15 -26 14 -27 76 -128 rcurveline
          92 hlineto
          -161 263 150 255 rlineto
          -88 hlineto
          -67 -122 -12 -23 -12 -23 -15 -31 rlinecurve
          -4 hlineto
          -17 31 -12 23 -13 23 -70 122 rcurveline
          -91 hlineto
          150 -251 rlineto
          endchar
        </CharString>
        <CharString name="X.sups">
          -214 266 432 hstem
          8 330 vstem
          8 266 rmoveto
          66 hlineto
          60 113 11 21 12 22 12 26 rlinecurve
          3 hlineto
          14 -26 12 -22 11 -21 60 -113 rcurveline
          69 hlineto
          -127 221 119 211 rlineto
          -67 hlineto
          -54 -105 -10 -20 -9 -18 -12 -26 rlinecurve
          -3 hlineto
          -13 26 -10 18 -10 20 -56 105 rcurveline
          -69 hlineto
          118 -208 rlineto
          endchar
        </CharString>
        <CharString name="Y">
          185 callgsubr
          hstem
          196 84 vstem
          -96 callsubr
          endchar
        </CharString>
        <CharString name="Y.sc">
          144 callsubr
          hstem
          166 83 vstem
          -95 callgsubr
          endchar
        </CharString>
        <CharString name="Y.sups">
          -240 266 432 hstem
          129 63 vstem
          129 266 rmoveto
          63 166 hlineto
          131 266 rlineto
          -65 hlineto
          -53 -117 -13 -33 -14 -29 -15 -33 rlinecurve
          -3 hlineto
          -15 33 -13 29 -14 33 -55 117 rcurveline
          -66 hlineto
          132 -266 rlineto
          endchar
        </CharString>
        <CharString name="Yacute">
          185 callgsubr
          70 112 hstem
          196 84 vstem
          -96 callsubr
          173 564 -60 callsubr
          endchar
        </CharString>
        <CharString name="Yacute.sc">
          144 callsubr
          93 111 hstem
          166 83 vstem
          -95 callgsubr
          173 506 -47 callsubr
          endchar
        </CharString>
        <CharString name="Ycircumflex">
          185 callgsubr
          70 112 hstem
          196 84 vstem
          -96 callsubr
          -27 452 -74 callgsubr
          -80 hlineto
          -96 -10 callsubr
          endchar
        </CharString>
        <CharString name="Ycircumflex.sc">
          144 callsubr
          93 111 hstem
          166 83 vstem
          -95 callgsubr
          -27 395 -82 callgsubr
          endchar
        </CharString>
        <CharString name="Ydieresis">
          185 callgsubr
          79 98 hstemhm
          103 97 -4 84 -5 98 hintmask 11101000
          -96 callsubr
          hintmask 11110100
          -44 461 rmoveto
          28 20 21 28 29 -20 20 -28 -29 -20 -20 -29 185 callsubr
          172 hmoveto
          -13 callgsubr
          -28 -21 -20 -29 -10 callgsubr
          endchar
        </CharString>
        <CharString name="Ydieresis.sc">
          144 callsubr
          102 98 hstemhm
          73 97 -4 83 -4 98 hintmask 11101000
          -95 callgsubr
          hintmask 11110100
          -45 404 rmoveto
          164 callsubr
          173 hmoveto
          -6 callsubr
          endchar
        </CharString>
        <CharString name="Ygrave">
          185 callgsubr
          70 112 hstem
          196 84 vstem
          -96 callsubr
          24 452 17 callsubr
        </CharString>
        <CharString name="Ygrave.sc">
          144 callsubr
          93 111 hstem
          166 83 vstem
          -95 callgsubr
          24 395 62 callgsubr
        </CharString>
        <CharString name="Z">
          -21 91 callsubr
          hstem
          45 452 -52 callgsubr
          endchar
        </CharString>
        <CharString name="Z.sc">
          -85 0 69 381 68 hstem
          45 388 -53 callsubr
          endchar
        </CharString>
        <CharString name="Z.sups">
          -202 266 53 327 52 hstem
          27 305 vstem
          27 266 rmoveto
          305 53 -227 hlineto
          225 342 rlineto
          37 -283 -52 206 vlineto
          -226 -342 rlineto
          endchar
        </CharString>
        <CharString name="Zacute">
          -21 91 callsubr
          50 112 hstem
          45 452 -52 callgsubr
          367 768 -60 callsubr
          endchar
        </CharString>
        <CharString name="Zacute.sc">
          -85 0 69 381 68 73 111 hstem
          45 388 -53 callsubr
          336 653 -47 callsubr
          endchar
        </CharString>
        <CharString name="Zcaron">
          -21 91 callsubr
          50 112 hstem
          45 452 -52 callgsubr
          305 768 -86 callsubr
          -10 callsubr
          80 36 callsubr
        </CharString>
        <CharString name="Zcaron.sc">
          -85 0 69 381 68 73 111 hstem
          45 388 -53 callsubr
          274 653 14 callgsubr
          -7 callgsubr
          79 27 callsubr
        </CharString>
        <CharString name="Zdotaccent">
          -21 91 callsubr
          58 107 hstem
          224 114 -52 callgsubr
          236 664 rmoveto
          -54 callgsubr
        </CharString>
        <CharString name="Zdotaccent.sc">
          -85 0 69 381 68 80 108 hstem
          194 113 -53 callsubr
          205 549 134 callgsubr
        </CharString>
        <CharString name="a">
          -63 callgsubr
          90 callgsubr
          hintmask 10111000
          -93 callgsubr
          hintmask 01111000
          -104 callsubr
          hintmask 10111000
          -103 callgsubr
          endchar
        </CharString>
        <CharString name="a.a">
          -82 callsubr
          75 callsubr
          hintmask 10101100
          -107 callsubr
          hintmask 01011100
          -75 callsubr
          hintmask 10101100
          -98 callsubr
          endchar
        </CharString>
        <CharString name="a.supa">
          -40 callgsubr
        </CharString>
        <CharString name="a.sups">
          -49 callsubr
        </CharString>
        <CharString name="aacute">
          -63 callgsubr
          75 141 90 callgsubr
          hintmask 10111100
          -93 callgsubr
          hintmask 01111100
          -104 callsubr
          hintmask 10111100
          -103 callgsubr
          241 582 -27 callgsubr
        </CharString>
        <CharString name="aacute.a">
          -82 callsubr
          107 141 75 callsubr
          hintmask 10101110
          -107 callsubr
          hintmask 01011110
          -75 callsubr
          hintmask 10101110
          -98 callsubr
          347 472 rmoveto
          -86 143 callgsubr
          endchar
        </CharString>
        <CharString name="abreve">
          -63 callgsubr
          77 51 hstemhm
          58 81 4 51 150 52 -39 82 hintmask 10111001
          -93 callgsubr
          hintmask 01111001
          -104 callsubr
          hintmask 10111001
          -103 callgsubr
          hintmask 10110110
          223 callsubr
          -52 -68 callsubr
          endchar
        </CharString>
        <CharString name="abreve.a">
          -82 callsubr
          109 51 hstemhm
          47 85 24 51 151 51 -19 83 hintmask 1010110010000000
          -107 callsubr
          hintmask 0101110010000000
          -75 callsubr
          hintmask 1010110010000000
          -98 callsubr
          hintmask 1010111100000000
          236 333 rmoveto
          86 35 -23 callgsubr
          endchar
        </CharString>
        <CharString name="acircumflex">
          -63 callgsubr
          75 141 -50 50 90 callgsubr
          hintmask 10110110
          -93 callgsubr
          hintmask 01110110
          -104 callsubr
          hintmask 10110110
          -103 callgsubr
          2 441 rmoveto
          59 hlineto
          hintmask 10101110
          52 callsubr
          hintmask 10110110
          -38 callgsubr
          endchar
        </CharString>
        <CharString name="acircumflex.a">
          -82 callsubr
          107 141 -50 50 75 callsubr
          hintmask 10101011
          -107 callsubr
          hintmask 01011011
          -75 callsubr
          hintmask 10101011
          -98 callsubr
          107 331 rmoveto
          60 hlineto
          hintmask 10100111
          52 callsubr
          hintmask 10101011
          85 callgsubr
          endchar
        </CharString>
        <CharString name="acute">
          -18 131 callgsubr
          206 176 vstem
          382 714 -27 callgsubr
        </CharString>
        <CharString name="adieresis">
          -63 callgsubr
          90 98 hstemhm
          58 81 -5 98 75 97 -47 82 hintmask 10111001
          -93 callgsubr
          hintmask 01111001
          -104 callsubr
          hintmask 10111001
          -103 callgsubr
          hintmask 10110110
          44 456 34 callgsubr
          20 21 28 28 -20 195 callsubr
        </CharString>
        <CharString name="adieresis.a">
          -82 callsubr
          122 98 hstemhm
          47 85 15 98 75 98 -28 83 hintmask 1010110010000000
          -107 callsubr
          hintmask 0101110010000000
          -75 callsubr
          hintmask 1010110010000000
          -98 callsubr
          hintmask 1010111100000000
          149 346 rmoveto
          29 20 21 28 28 -20 21 -29 -11 callsubr
          173 hmoveto
          44 callsubr
          -11 callsubr
          endchar
        </CharString>
        <CharString name="ae">
          225 -12 67 168 55 152 68 -65 65 hstemhm
          58 81 213 77 246 72 hintmask 11011110
          139 132 rmoveto
          62 59 40 154 20 vhcurveto
          -25 vlineto
          1 -37 7 -38 11 -25 rrcurveto
          -48 -44 -58 -27 -45 hhcurveto
          -48 -37 23 55 hvcurveto
          hintmask 11101110
          -27 246 rmoveto
          26 38 50 26 53 hhcurveto
          80 19 -60 -62 hvcurveto
          -202 -23 -92 -53 -106 vvcurveto
          -87 61 -51 82 62 70 32 59 66 vhcurveto
          -48 37 53 -43 81 hhcurveto
          66 50 23 27 42 hvcurveto
          -30 57 rlineto
          -23 -36 -35 -17 -47 hhcurveto
          -83 -64 67 101 -4 hvcurveto
          315 hlineto
          2 12 1 16 18 vvcurveto
          hintmask 11011110
          139 -66 90 -119 -66 -56 -40 -63 -38 vhcurveto
          63 -20 -47 40 -72 hhcurveto
          -72 -67 -34 -29 -45 hvcurveto
          350 -157 rmoveto
          95 9 55 60 67 hhcurveto
          74 41 -55 -100 hvcurveto
          endchar
        </CharString>
        <CharString name="agrave">
          -63 callgsubr
          75 141 90 callgsubr
          hintmask 10111100
          -93 callgsubr
          hintmask 01111100
          -104 callsubr
          hintmask 10111100
          -103 callgsubr
          132 441 5 callsubr
        </CharString>
        <CharString name="agrave.a">
          -82 callsubr
          107 141 75 callsubr
          hintmask 10101110
          -107 callsubr
          hintmask 01011110
          -75 callsubr
          hintmask 10101110
          -98 callsubr
          238 331 rmoveto
          63 hlineto
          -91 141 rlineto
          -85 hlineto
          endchar
        </CharString>
        <CharString name="amacron">
          -63 callgsubr
          103 57 hstemhm
          58 81 8 245 -35 82 hintmask 10111010
          -93 callgsubr
          hintmask 01111010
          -104 callsubr
          hintmask 10111010
          -103 callgsubr
          hintmask 10111100
          8 469 -15 callsubr
        </CharString>
        <CharString name="amacron.a">
          -82 callsubr
          135 57 hstemhm
          47 85 28 245 -15 83 hintmask 10101101
          -107 callsubr
          hintmask 01011101
          -75 callsubr
          hintmask 10101101
          -98 callsubr
          hintmask 10101110
          113 359 -15 callsubr
        </CharString>
        <CharString name="ampersand">
          49 -12 66 555 59 hstemhm
          32 80 6 71 143 67 hintmask 11101000
          112 175 rmoveto
          51 36 39 46 37 vhcurveto
          46 -70 62 -69 64 -56 rrcurveto
          -33 -38 -42 -20 -45 hhcurveto
          -72 -57 48 73 hvcurveto
          hintmask 11011000
          77 339 rmoveto
          54 32 41 49 44 18 -34 -38 -58 -52 -40 -60 -40 vhcurveto
          -19 40 -12 39 36 vvcurveto
          405 -458 rmoveto
          -36 10 -42 22 -45 31 52 69 37 80 26 86 rrcurveto
          -77 hlineto
          -20 -75 -32 -65 -40 -54 -62 52 -61 65 -43 67 rrcurveto
          73 53 75 55 86 vvcurveto
          77 -48 53 -81 -91 -61 -68 -87 -48 16 -52 27 -54 vhcurveto
          hintmask 11101000
          -67 -46 -62 -55 -88 vvcurveto
          -106 81 -76 119 77 62 30 45 50 vhcurveto
          53 -37 52 -25 46 -13 rrcurveto
          endchar
        </CharString>
        <CharString name="ampersand.sc">
          -26 -12 63 422 57 hstemhm
          32 76 -4 66 117 63 hintmask 11101000
          108 140 rmoveto
          37 27 30 37 27 vhcurveto
          38 -53 50 -51 53 -42 rrcurveto
          -22 -31 -34 -15 -35 hhcurveto
          -59 -46 35 54 hvcurveto
          hintmask 11011000
          62 261 rmoveto
          41 27 31 40 36 14 -26 -29 -44 -41 -30 -50 -29 vhcurveto
          -16 30 -10 29 27 vvcurveto
          349 -347 rmoveto
          -30 8 -36 15 -37 22 44 54 31 61 22 68 rrcurveto
          -75 hlineto
          -16 -56 -26 -50 -33 -41 -51 38 -50 48 -37 49 rrcurveto
          62 40 63 43 66 vvcurveto
          64 -42 47 -71 -80 -53 -59 -70 -37 14 -41 23 -41 vhcurveto
          hintmask 11101000
          -57 -35 -52 -42 -70 vvcurveto
          -82 68 -65 104 67 54 24 36 42 vhcurveto
          46 -30 44 -20 41 -10 rrcurveto
          endchar
        </CharString>
        <CharString name="aogonek">
          -48 -206 55 139 -31 callsubr
          hstemhm
          58 81 153 60 5 82 hintmask 11011010
          139 132 rmoveto
          62 55 40 163 20 vhcurveto
          -135 vlineto
          -42 -47 -39 -23 -47 hhcurveto
          -48 -37 23 55 hvcurveto
          -81 -6 rmoveto
          -87 61 -51 82 60 54 32 38 47 vhcurveto
          2 hlineto
          8 -54 rlineto
          hintmask 11011100
          -39 -25 -41 -46 -54 vvcurveto
          -56 39 150 callgsubr
          -12 -5 -16 hhcurveto
          -24 -23 15 31 hvcurveto
          hintmask 10111010
          39 32 44 55 22 vhcurveto
          298 vlineto
          121 -50 79 -119 -78 -68 -34 -29 -45 vhcurveto
          33 -57 rlineto
          26 38 50 26 57 hhcurveto
          79 21 -60 -62 hvcurveto
          hintmask 11011010
          -207 -23 -92 -53 -106 vvcurveto
          endchar
        </CharString>
        <CharString name="aogonek.a">
          -5 -206 55 139 -63 callsubr
          hstemhm
          47 85 193 61 4 83 hintmask 11010101
          -107 callsubr
          7 -53 rlineto
          hintmask 11010110
          -42 -31 -38 -40 -54 vvcurveto
          -56 40 71 callgsubr
          -12 -13 -5 -16 hhcurveto
          -24 -22 15 31 hvcurveto
          hintmask 10101101
          39 28 37 59 29 vhcurveto
          486 -67 vlineto
          hintmask 11010101
          -98 callsubr
          endchar
        </CharString>
        <CharString name="approxequal">
          -63 149 62 23 62 68 62 23 62 hstemhm
          36 425 hintmask 01011000
          82 388 231 callgsubr
          hintmask 01111000
          68 callsubr
          -64 -36 hvcurveto
          46 -247 231 callgsubr
          hintmask 11011000
          68 callsubr
          -63 -36 hvcurveto
          endchar
        </CharString>
        <CharString name="aring">
          -63 callgsubr
          44 37 111 37 hstemhm
          58 81 37 45 96 46 -6 82 hintmask 1011111010000000
          -93 callgsubr
          hintmask 0111111010000000
          -104 callsubr
          hintmask 1011111010000000
          -103 callgsubr
          hintmask 1011111100000000
          130 410 37 callsubr
        </CharString>
        <CharString name="aring.a">
          -82 callsubr
          76 37 111 37 hstemhm
          47 85 57 46 96 45 14 83 hintmask 1010111101000000
          -107 callsubr
          hintmask 0101111101000000
          -75 callsubr
          hintmask 1010111101000000
          -98 callsubr
          hintmask 1010111111000000
          236 300 rmoveto
          54 39 37 56 55 -39 37 -54 -55 -39 -37 -55 -56 39 -37 55 hvcurveto
          37 vmoveto
          -27 -21 22 34 33 21 22 27 26 22 -22 -33 -34 -22 -22 -26 hvcurveto
          endchar
        </CharString>
        <CharString name="arrowdown">
          59 -25 552 hstem
          275 68 vstem
          311 -25 rmoveto
          266 273 -47 42 -187 -201 rlineto
          438 -68 -438 vlineto
          -187 201 -46 -42 265 -273 rlineto
          endchar
        </CharString>
        <CharString name="arrowup">
          59 -25 552 hstem
          275 68 vstem
          307 527 rmoveto
          -265 -272 46 -42 187 201 rlineto
          -439 68 439 vlineto
          187 -201 47 42 -266 272 rlineto
          endchar
        </CharString>
        <CharString name="asciicircum">
          -63 593 77 hstem
          60 377 vstem
          60 284 rmoveto
          72 hlineto
          65 176 50 133 rlineto
          4 hlineto
          49 -133 65 -176 rlineto
          72 hlineto
          -152 386 rlineto
          -73 hlineto
          endchar
        </CharString>
        <CharString name="asciitilde">
          -63 257 62 22 62 hstemhm
          36 425 hintmask 01100000
          82 280 231 callgsubr
          hintmask 11100000
          56 42 -84 79 hhcurveto
          43 46 26 63 36 hvcurveto
          -46 34 rlineto
          -43 -23 -25 -18 -29 hhcurveto
          hintmask 01100000
          -56 -42 84 -79 hhcurveto
          -43 -46 -26 -64 -36 hvcurveto
          endchar
        </CharString>
        <CharString name="asterisk">
          -142 420 292 hstem
          179.5 58 vstem
          138 420 rmoveto
          71 86 71 -86 39 29 -56 94 97 40 -15 46 -103 -24 -9 107 rlineto
          -49 hlineto
          -9 -108 -102 25 -15 -46 97 -40 -57 -94 rlineto
          endchar
        </CharString>
        <CharString name="at">
          287 -155 55 149 56 -48 56 260 57 161 55 hstemhm
          51 60 138 66 178 49 196 58 hintmask 1101111110000000
          51 203 rmoveto
          -233 156 -125 196 69 63 16 35 58 vhcurveto
          -22 49 rlineto
          -26 -45 -56 -19 -61 hhcurveto
          -170 -128 111 195 234 172 151 178 182 95 -118 -161 -130 -71 -77 -63 -55 -19 38 79 20 hvcurveto
          39 200 rlineto
          -55 hlineto
          -11 -40 rlineto
          -2 hlineto
          33 -18 -28 15 -34 hhcurveto
          -117 -75 -125 -107 hvcurveto
          hintmask 1011111110000000
          -91 52 -50 68 44 45 29 39 33 vhcurveto
          2 hlineto
          hintmask 1101111110000000
          -50 7 42 -26 54 hhcurveto
          91 109 91 175 197 -126 134 -202 -224 -193 -175 -268 hvcurveto
          hintmask 1011111110000000
          264 hmoveto
          75 48 95 79 27 18 -11 -31 19 vhcurveto
          -29 -159 rlineto
          -41 -34 -30 -18 -28 hhcurveto
          -40 -30 26 64 hvcurveto
          endchar
        </CharString>
        <CharString name="at.case">
          222 -24 53 119 56 -48 56 236 56 131 53 hstemhm
          51 59 118 66 164 50 166 58 hintmask 1101111110000000
          51 290 rmoveto
          -210 144 -104 172 58 52 12 29 50 vhcurveto
          -23 46 rlineto
          -23 -37 -47 -11 -47 hhcurveto
          -146 -117 83 181 208 154 134 163 162 85 -98 -144 -123 -64 -66 -52 -47 -13 34 80 18 hvcurveto
          40 178 rlineto
          -56 hlineto
          -12 -40 rlineto
          -2 hlineto
          33 -17 -27 15 -32 hhcurveto
          -113 -69 -117 -102 hvcurveto
          hintmask 1011111110000000
          -78 49 -51 59 47 43 30 39 30 vhcurveto
          2 hlineto
          hintmask 1101111110000000
          -48 6 34 -29 51 hhcurveto
          92 91 88 161 175 -119 116 -178 -207 -177 -157 -241 hvcurveto
          hintmask 1011111110000000
          303 -78 rmoveto
          -34 -26 26 54 69 45 87 71 27 15 -10 -31 18 hvcurveto
          -27 -137 rlineto
          -40 -34 -29 -18 -26 hhcurveto
          endchar
        </CharString>
        <CharString name="atilde">
          -63 callgsubr
          81 217 callsubr
          58 81 -9 47 180 82 -77 47 hintmask 1010110100000000
          -93 callgsubr
          hintmask 0110110100000000
          -104 callsubr
          hintmask 1010110100000000
          -103 callgsubr
          hintmask 1010101010000000
          -9 447 rmoveto
          -20 callgsubr
          6 hvcurveto
          -47 hlineto
          hintmask 1011001010000000
          26 callgsubr
          -50 hhcurveto
          hintmask 1010101010000000
          103 callsubr
        </CharString>
        <CharString name="atilde.a">
          -82 callsubr
          113 217 callsubr
          47 85 11 47 185 47 -32 83 hintmask 1010011001000000
          -107 callsubr
          hintmask 0101011001000000
          -75 callsubr
          hintmask 1010011001000000
          -98 callsubr
          hintmask 1010011110000000
          96 337 rmoveto
          11 callgsubr
          -47 hlineto
          hintmask 1010101110000000
          100 callsubr
          hintmask 1010011110000000
          103 callsubr
        </CharString>
        <CharString name="b">
          -5 -12 -50 callsubr
          214 -20 hstemhm
          82 82 258 85 hintmask 01111100
          82 hmoveto
          66 hlineto
          hintmask 10111100
          -9 callgsubr
          endchar
        </CharString>
        <CharString name="b.sups">
          -186 258 51 235 52 hstem
          52 62 163 64 186 callsubr
          48 hlineto
          6 33 rlineto
          4 hlineto
          -27 27 34 -14 30 242 callgsubr
          -37 -33 -20 -25 -30 hvcurveto
          3 58 rlineto
          126 -62 vlineto
          62 -394 93 callgsubr
        </CharString>
        <CharString name="backslash">
          -210 -160 870 hstem
          14 326 vstem
          281 -160 rmoveto
          59 hlineto
          -267 870 rlineto
          -59 hlineto
          endchar
        </CharString>
        <CharString name="bar">
          -319 228 callsubr
          vstem
          92 -250 rmoveto
          58 1000 -58 hlineto
          endchar
        </CharString>
        <CharString name="braceleft">
          234 callgsubr
          357 52 357 47 hstemhm
          34 90 -13 73 hintmask 11101000
          246 -105 rmoveto
          -54 -14 26 65 hvcurveto
          61 6 52 68 vvcurveto
          64 -17 33 -43 12 vhcurveto
          4 vlineto
          43 12 17 32 65 68 -6 52 61 vvcurveto
          65 14 26 54 vhcurveto
          27 47 -45 hlineto
          -79 -38 -30 -103 hvcurveto
          -73 9 -53 -68 vvcurveto
          hintmask 11110000
          -38 -18 -38 -68 -1 vhcurveto
          -52 vlineto
          hintmask 11101000
          68 -1 18 -38 -39 -67 -9 -53 -73 vvcurveto
          -103 38 -30 79 vhcurveto
          45 47 hlineto
          endchar
        </CharString>
        <CharString name="braceright">
          234 callgsubr
          357 52 357 47 hstemhm
          120 72 -13 90 hintmask 11110000
          31 -105 rmoveto
          -47 44 vlineto
          80 37 30 103 hvcurveto
          73 -9 53 67 vvcurveto
          hintmask 11101000
          39 19 38 67 1 vhcurveto
          52 vlineto
          hintmask 11110000
          -67 1 -19 38 38 68 9 53 73 vvcurveto
          103 -37 30 -80 vhcurveto
          -44 -47 26 hlineto
          54 14 -26 -65 hvcurveto
          -61 -5 -52 -68 vvcurveto
          -65 16 -32 43 -12 vhcurveto
          -4 vlineto
          -43 -12 -16 -33 -64 -68 5 -52 -61 vvcurveto
          -65 -14 -26 -54 vhcurveto
          endchar
        </CharString>
        <CharString name="bracketleft">
          234 callgsubr
          766 214 callgsubr
          -152 rmoveto
          179 47 -117 766 210 callgsubr
        </CharString>
        <CharString name="bracketright">
          234 callgsubr
          766 47 hstem
          147 62 vstem
          31 -105 rmoveto
          -47 178 860 -178 -47 116 -766 vlineto
          endchar
        </CharString>
        <CharString name="breve">
          -18 575 51 hstem
          145 51 150 51 vstem
          271 575 rmoveto
          236 callsubr
          4 hvcurveto
          -51 -68 callsubr
          endchar
        </CharString>
        <CharString name="brokenbar">
          -319 228 callsubr
          vstem
          92 291 rmoveto
          58 459 -58 hlineto
          -536 vmoveto
          -464 58 464 vlineto
          endchar
        </CharString>
        <CharString name="bullet">
          -256 143 241 hstem
          40 224 vstem
          152 143 rmoveto
          60 52 48 72 72 -52 49 -60 -60 -52 -49 -72 -72 52 -48 60 hvcurveto
          endchar
        </CharString>
        <CharString name="c">
          -104 34 callsubr
          hstem
          46 85 vstem
          -88 callgsubr
          endchar
        </CharString>
        <CharString name="c.sups">
          -254 258 51 236 51 hstem
          30 63 vstem
          184 258 rmoveto
          50 33 19 19 23 hvcurveto
          -26 41 rlineto
          -15 -19 -21 -13 -34 hhcurveto
          -57 -40 49 69 70 42 48 55 29 16 -8 -17 20 hvcurveto
          30 41 rlineto
          17 -20 -32 18 -47 hhcurveto
          -83 -73 -62 -107 -107 65 -62 89 hvcurveto
          endchar
        </CharString>
        <CharString name="cacute">
          -104 34 callsubr
          75 141 hstem
          46 85 vstem
          -88 callgsubr
          343 472 rmoveto
          -85 143 callgsubr
          endchar
        </CharString>
        <CharString name="caron">
          -18 131 callgsubr
          143 257 vstem
          237 573 55 callsubr
          90 callsubr
          148 callgsubr
        </CharString>
        <CharString name="ccaron">
          -104 34 callsubr
          75 92 callgsubr
          46 85 hintmask 11011000
          -88 callgsubr
          199 331 87 callsubr
          hintmask 11101000
          90 callsubr
          hintmask 11011000
          82 callgsubr
        </CharString>
        <CharString name="ccedilla">
          -104 -192 -21 203 66 374 68 hstem
          46 85 145 64 vstem
          300 -10 rmoveto
          48 5 47 23 37 33 -37 54 rcurveline
          -26 -29 -39 -23 -46 hhcurveto
          -89 -61 204 callsubr
          64 76 88 39 30 -18 -25 29 hvcurveto
          41 53 rlineto
          31 -33 -45 27 -64 hhcurveto
          -125 -109 -93 -163 -149 85 -90 114 -13 hvcurveto
          -33 -65 rlineto
          39 callgsubr
          76 7 68 callgsubr
          41 -27 19 -32 11 vhcurveto
          endchar
        </CharString>
        <CharString name="ccircumflex">
          -104 34 callsubr
          228 callgsubr
          85 hintmask 11101000
          -88 callgsubr
          104 331 rmoveto
          60 hlineto
          hintmask 11011000
          52 callsubr
          hintmask 11101000
          85 callgsubr
          endchar
        </CharString>
        <CharString name="cdotaccent">
          -104 34 callsubr
          88 108 hstem
          46 85 93 109 vstem
          -88 callgsubr
          233 344 101 callsubr
          -23 -23 -31 -32 23 -29 callsubr
        </CharString>
        <CharString name="cedilla">
          -18 -213 41 122 53 hstem
          282 63 vstem
          218 -75 rmoveto
          -32 callsubr
          41 -26 19 -33 11 vhcurveto
          26 53 rlineto
          -54 hlineto
          endchar
        </CharString>
        <CharString name="cent">
          -63 70 68 344 68 hstem
          61 82 119 52 vstem
          262 142 rmoveto
          -75 17 -44 62 89 vvcurveto
          88 46 62 73 17 vhcurveto
          156 -292 rmoveto
          -27 -24 -35 -20 -42 -3 rrcurveto
          344 vlineto
          35 -2 29 -16 27 -24 40 52 rcurveline
          -31 29 -42 26 -58 3 rrcurveto
          103 -52 -106 vlineto
          -113 -16 -88 -83 -138 vvcurveto
          -141 82 -84 119 -14 vhcurveto
          -104 52 103 vlineto
          52 4 49 24 39 35 rrcurveto
          endchar
        </CharString>
        <CharString name="circumflex">
          -18 131 callgsubr
          143 257 vstem
          143 573 rmoveto
          59 hlineto
          52 callsubr
          -38 callgsubr
          endchar
        </CharString>
        <CharString name="colon">
          -311 -12 126 235 125 hstem
          65 119 vstem
          65 411 rmoveto
          -37 27 -25 33 32 27 25 37 38 -27 25 -32 -33 -27 -25 -38 vhcurveto
          -361 vmoveto
          -30 callsubr
          endchar
        </CharString>
        <CharString name="colon.sups">
          -383 432 95 130 96 hstem
          43 91 vstem
          43 479 54 callgsubr
          226 vmoveto
          53 callgsubr
        </CharString>
        <CharString name="colonmonetary">
          -63 -12 67 -46 -21 22 -21 595 66 -7 -20 23 -20 hstemhm
          61 85 120 38 -32 38 hintmask 1001001100000000
          290 582 rmoveto
          1 9 9 1 10 hhcurveto
          11 9 -2 -2 10 hvcurveto
          -62 -524 -21 3 -18 7 -17 12 rlinecurve
          -33 35 rmoveto
          -33 47 -18 71 90 vvcurveto
          125 37 89 68 34 vhcurveto
          179 -444 rmoveto
          -31 -41 -33 -24 -42 -5 60 506 rcurveline
          14 -10 14 -14 12 -15 49 46 rcurveline
          -21 27 -28 24 -32 15 14 114 rcurveline
          -38 hlineto
          hintmask 0010011100000000
          -12 -102 rlineto
          hintmask 0011001100000000
          3 -12 -12 1 -12 hhcurveto
          -7 -8 0 -1 -7 hvcurveto
          12 99 rlineto
          -38 hlineto
          hintmask 0010101100000000
          -12 -105 rlineto
          -122 -29 -77 -118 -178 vvcurveto
          -143 48 -104 77 -50 vhcurveto
          hintmask 0010011010000000
          -16 -131 rlineto
          38 hlineto
          13 113 18 -7 19 -5 20 -2 rlinecurve
          hintmask 0100011010000000
          -12 -99 rlineto
          38 hlineto
          12 98 68 4 52 35 42 54 rlinecurve
          endchar
        </CharString>
        <CharString name="comma">
          -311 -1 115 hstem
          137 61 vstem
          67 -170 rmoveto
          61 callgsubr
        </CharString>
        <CharString name="comma.dnom">
          -383 -1 212 callsubr
          -116 rmoveto
          59 22 36 49 59 vvcurveto
          48 -20 25 31 callsubr
          -38 -24 -26 -39 -15 rrcurveto
          endchar
        </CharString>
        <CharString name="comma.numr">
          -383 266 212 callsubr
          151 rmoveto
          59 21 36 49 59 vvcurveto
          48 -20 26 31 callsubr
          -39 -24 -26 -39 -15 rrcurveto
          endchar
        </CharString>
        <CharString name="comma.subs">
          -383 -208 212 callsubr
          -323 rmoveto
          59 21 36 49 60 vvcurveto
          47 -20 26 31 callsubr
          -39 -24 -25 -39 -16 rrcurveto
          endchar
        </CharString>
        <CharString name="comma.sups">
          -383 439 212 callsubr
          324 rmoveto
          59 22 36 49 59 vvcurveto
          48 -20 25 31 callsubr
          -38 -24 -26 -39 -15 rrcurveto
          endchar
        </CharString>
        <CharString name="copyright">
          184 -11 42 94 55 277 55 100 41 hstem
          49 47 102 66 384 47 vstem
          49 323 -16 callsubr
          102 hmoveto
          -124 81 -74 101 60 38 25 32 37 vhcurveto
          -30 42 rlineto
          -25 -29 -31 -19 -42 hhcurveto
          -72 -47 55 88 78 49 56 73 35 25 -15 -26 27 hvcurveto
          35 39 rlineto
          32 -32 -37 25 -56 hhcurveto
          -97 -88 -73 -116 hvcurveto
          endchar
        </CharString>
        <CharString name="currency">
          -63 134 61 268 61 hstem
          54 76 237 76 vstem
          70 103 rmoveto
          68 69 rlineto
          -25 31 39 -13 41 hhcurveto
          39 40 13 25 31 hvcurveto
          68 -69 44 45 -65 65 rlineto
          23 31 14 39 46 vvcurveto
          46 -14 40 -23 31 vhcurveto
          65 66 -44 45 -68 -70 rlineto
          24 -31 -40 13 -39 hhcurveto
          -41 -39 -13 -24 -31 hvcurveto
          -68 70 -44 -45 64 -66 rlineto
          -23 -31 -13 -40 -46 vvcurveto
          -46 13 -39 23 -31 vhcurveto
          -64 -65 rlineto
          104 181 rmoveto
          80 54 54 65 64 54 -54 -80 -80 -54 -54 -64 -65 -54 54 80 vhcurveto
          endchar
        </CharString>
        <CharString name="d">
          -5 -12 -50 callsubr
          214 -20 75 callsubr
          hintmask 10111100
          47 242 rmoveto
          -162 79 235 callgsubr
          52 32 37 38 vhcurveto
          3 hlineto
          hintmask 01111100
          8 callgsubr
          hintmask 10111100
          -76 callsubr
          endchar
        </CharString>
        <CharString name="d.sups">
          -186 258 51 236 51 229 callgsubr
          170 258 rmoveto
          37 29 20 23 26 hvcurveto
          3 hlineto
          7 -35 rlineto
          50 469 -62 -120 hlineto
          3 -55 rlineto
          22 -27 -28 14 -35 hhcurveto
          -72 -68 -63 -100 -111 52 -64 85 hvcurveto
          14 51 rmoveto
          -59 -28 45 79 67 39 45 47 24 26 -9 -23 27 hvcurveto
          -162 vlineto
          -27 -27 -23 -15 -26 hhcurveto
          endchar
        </CharString>
        <CharString name="dagger">
          -106 488.5 66 190 callgsubr
          192 -80 rmoveto
          70 hlineto
          -5 571 143 -5 109 callsubr
          5 rlineto
          endchar
        </CharString>
        <CharString name="daggerdbl">
          -106 77.5 65 347 65 190 callgsubr
          54 75 rmoveto
          143 5 -5 -160 rlineto
          70 hlineto
          -5 160 143 -5 rlineto
          71 vlineto
          -143 -7 5 177 -5 177 143 -7 109 callsubr
          7 -5 -177 5 -177 -143 7 rlineto
          endchar
        </CharString>
        <CharString name="dcaron">
          13 -12 -50 callsubr
          50 164 -164 212 -48 -20 75 callsubr
          55 49 hintmask 1010011110000000
          47 242 rmoveto
          -162 79 235 callgsubr
          52 32 37 38 vhcurveto
          3 hlineto
          hintmask 0110011110000000
          8 callgsubr
          hintmask 1010011110000000
          -76 callsubr
          hintmask 1011001110000000
          438 305 rmoveto
          hintmask 1010101110000000
          156 callgsubr
          hintmask 1011001110000000
          4 248 callgsubr
        </CharString>
        <CharString name="dcroat">
          -5 193 callsubr
          47 85 258 83 hintmask 10110110
          390 124 rmoveto
          -45 -40 -39 -22 -45 hhcurveto
          -85 -49 65 111 105 62 71 78 40 37 -14 -37 41 hvcurveto
          155 261 rmoveto
          -72 hlineto
          hintmask 10101110
          93 -83 vlineto
          hintmask 10110110
          -93 -161 -48 161 -66 vlineto
          4 -83 rlineto
          35 -43 -37 21 -56 hhcurveto
          -111 -100 -95 -151 -156 79 -88 122 58 51 30 37 37 hvcurveto
          3 hlineto
          hintmask 01110110
          6 -55 rlineto
          70 571 hlineto
          72 5 rlineto
          endchar
        </CharString>
        <CharString name="degree">
          -229 429 46 164 46 hstem
          41 50 150 50 vstem
          166 429 rmoveto
          67 58 50 77 79 -58 50 -67 -67 -58 -50 -79 -77 58 -50 67 hvcurveto
          46 vmoveto
          -44 -31 34 47 49 31 34 44 44 31 -34 -49 -47 -31 -34 -44 hvcurveto
          endchar
        </CharString>
        <CharString name="dieresis">
          -18 588 98 hstem
          136 98 75 97 vstem
          185 588 -81 callgsubr
        </CharString>
        <CharString name="divide">
          -63 96 107 96 62 95 107 hstem
          194 109 vstem
          249 456 rmoveto
          209 callgsubr
          -32 24 -22 31 hvcurveto
          -55 -306 rmoveto
          -32 24 -22 31 209 callgsubr
          vhcurveto
          -160 149 rmoveto
          127 callsubr
          endchar
        </CharString>
        <CharString name="dollar">
          -63 -110 166 -67 67 525 68 -68 167 -100 -20 21 -20 hstemhm
          77 81 64 60 74 81 hintmask 0100011110000000
          424 573 rmoveto
          -36 38 -42 31 -64 7 rrcurveto
          hintmask 0101001110000000
          99 -60 vlineto
          hintmask 0100101110000000
          -100 vlineto
          -87 -14 -58 -64 -89 -195 279 35 -162 vvcurveto
          -62 -37 -41 -74 -61 -51 30 37 -43 vhcurveto
          -38 -57 42 -39 64 -32 64 -6 rlinecurve
          hintmask 1000011110000000
          -99 60 vlineto
          hintmask 0110001110000000
          101 vlineto
          95 13 60 66 95 215 -279 -40 145 vvcurveto
          58 39 38 61 54 31 -21 -36 37 vhcurveto
          endchar
        </CharString>
        <CharString name="dong">
          -63 0 49 61 59 249 60 71 49 hstem
          68 73 195 70 vstem
          79 hmoveto
          359 49 -359 hlineto
          257 173 rmoveto
          -37 -32 -31 -16 -34 hhcurveto
          -62 -36 49 82 67 46 51 56 37 23 -12 -29 33 hvcurveto
          70 221 rmoveto
          67 -70 -67 -146 -49 146 -34 vlineto
          4 -83 rlineto
          29 -33 -27 17 -49 hhcurveto
          -84 -79 -69 -110 -122 61 -67 96 47 38 23 30 29 hvcurveto
          3 hlineto
          6 -43 rlineto
          58 429 hlineto
          78 5 rlineto
          44 vlineto
          endchar
        </CharString>
        <CharString name="dotaccent">
          -18 586 108 hstem
          217 108 vstem
          271 586 rmoveto
          -13 callsubr
        </CharString>
        <CharString name="dotlessi">
          -314 21 -21 486 199 callgsubr
          486 -82 hlineto
          endchar
        </CharString>
        <CharString name="e">
          -61 callsubr
          hstem
          232 callsubr
          vstem
          -107 callgsubr
          endchar
        </CharString>
        <CharString name="e.sups">
          -224 258 50 105 41 93 49 hstem
          28 60 167 55 vstem
          186 258 rmoveto
          44 38 16 20 31 hvcurveto
          -24 39 rlineto
          -15 -23 -28 -10 -31 hhcurveto
          -60 -40 39 66 -4 hvcurveto
          217 hlineto
          3 15 1 6 14 vvcurveto
          64 -32 84 -100 -81 -69 -65 -104 -108 70 -61 88 vhcurveto
          -98 196 rmoveto
          58 8 34 35 48 hhcurveto
          58 19 -49 -44 hvcurveto
          endchar
        </CharString>
        <CharString name="eacute">
          -61 callsubr
          75 141 hstem
          232 callsubr
          vstem
          -107 callgsubr
          -11 435 225 callgsubr
        </CharString>
        <CharString name="eacute.sups">
          151 callsubr
          132 645 rmoveto
          49 hlineto
          76 94 rlineto
          -65 hlineto
          -6 -9 callsubr
        </CharString>
        <CharString name="ebreve">
          -61 callsubr
          77 51 hstemhm
          46 80 12 51 151 51 -5 72 hintmask 11111001
          -107 callgsubr
          hintmask 11111110
          -122 296 15 callsubr
          36 -68 85 hhcurveto
          endchar
        </CharString>
        <CharString name="ecaron">
          -61 callsubr
          75 49 -49 141 182 callsubr
          hintmask 11101110
          -107 callgsubr
          -155 294 145 callgsubr
          -60 hlineto
          hintmask 11110110
          90 callsubr
          hintmask 11101110
          148 callgsubr
        </CharString>
        <CharString name="ecircumflex">
          -61 callsubr
          228 callgsubr
          80 260 72 hintmask 11110110
          -107 callgsubr
          -250 294 rmoveto
          59 hlineto
          hintmask 11101110
          52 callsubr
          hintmask 11110110
          67 -91 rlineto
          60 179 callsubr
          endchar
        </CharString>
        <CharString name="edieresis">
          -61 callsubr
          90 98 hstemhm
          46 80 3 98 75 98 -14 72 hintmask 11101001
          -107 callgsubr
          hintmask 11110110
          -208 309 36 callgsubr
        </CharString>
        <CharString name="edotaccent">
          -61 callsubr
          88 108 hstem
          46 80 84 108 68 72 vstem
          -107 callgsubr
          -122 307 rmoveto
          -17 callsubr
          23 -32 -31 -23 -23 103 callgsubr
        </CharString>
        <CharString name="egrave">
          -61 callsubr
          75 141 hstem
          232 callsubr
          vstem
          -107 callgsubr
          -120 294 rmoveto
          64 hlineto
          -91 141 rlineto
          -85 hlineto
          endchar
        </CharString>
        <CharString name="egrave.sups">
          151 callsubr
          175 645 rmoveto
          49 hlineto
          -59 94 rlineto
          -65 hlineto
          86 -9 callsubr
        </CharString>
        <CharString name="eight">
          -63 -12 61 540 61 hstemhm
          41 100 callgsubr
          115 -88 callsubr
        </CharString>
        <CharString name="eight.dnom">
          -193 -12 47 318 49 54 callsubr
          103 -57 callgsubr
        </CharString>
        <CharString name="eight.numr">
          -193 254 47 319 48 54 callsubr
          369 rmoveto
          32 19 28 35 21 vhcurveto
          53 -21 48 -12 -48 vvcurveto
          -37 -35 -31 -43 -46 -31 33 35 vhcurveto
          hintmask 11011000
          100 120 10 callgsubr
          45 vvcurveto
          63 -55 40 -70 -67 -54 -41 -62 -41 24 -25 34 -23 167 callsubr
          -38 -21 -36 -39 -48 vvcurveto
          endchar
        </CharString>
        <CharString name="eight.onum">
          -41 -12 61 540 61 hstemhm
          49 100 callgsubr
          123 -88 callsubr
        </CharString>
        <CharString name="eight.pnum">
          -35 -12 61 540 61 hstemhm
          55 100 callgsubr
          129 171 rmoveto
          58 38 47 52 34 vhcurveto
          92 -37 80 -30 -82 vvcurveto
          -66 -50 -46 -75 -78 -59 51 71 vhcurveto
          hintmask 11011000
          180 177 rmoveto
          -76 30 -71 32 76 vvcurveto
          62 44 41 59 71 40 -50 -63 -47 -24 -43 -43 -38 vhcurveto
          hintmask 11100100
          -254 -185 rmoveto
          -101 89 -74 121 123 82 75 95 86 -54 45 -57 33 vhcurveto
          4 vlineto
          hintmask 11011000
          39 30 49 57 67 vvcurveto
          99 -68 71 -112 -103 -78 -66 -98 -67 42 -47 47 -33 167 callsubr
          -60 -32 -60 -57 -83 vvcurveto
          endchar
        </CharString>
        <CharString name="eight.sc">
          -71 -12 59 424 59 hstemhm
          54 75 -48 74 190 71 -54 75 hintmask 11100100
          129 140 rmoveto
          48 38 35 44 24 vhcurveto
          84 -29 67 -24 -62 vvcurveto
          -52 -45 -33 -67 -69 -52 39 54 vhcurveto
          hintmask 11011000
          156 146 rmoveto
          -70 23 -60 27 57 vvcurveto
          48 38 30 53 62 37 -37 -49 -35 -22 -35 -38 -29 vhcurveto
          hintmask 11100100
          -231 -157 rmoveto
          -81 82 -60 111 114 76 61 81 70 -48 36 -53 28 vhcurveto
          3 vlineto
          hintmask 11011000
          37 24 43 45 56 vvcurveto
          80 -64 58 -104 -94 -73 -54 -83 -54 38 -39 44 -27 167 callsubr
          -54 -26 -55 -45 -69 vvcurveto
          endchar
        </CharString>
        <CharString name="eight.subs">
          -193 -220 47 319 48 54 callsubr
          -104 rmoveto
          32 19 28 35 20 vhcurveto
          53 -21 48 -12 -48 vvcurveto
          -37 -35 -31 -43 -46 -31 33 36 vhcurveto
          hintmask 11011000
          100 119 10 callgsubr
          46 vvcurveto
          62 -55 40 -70 -67 -54 -41 -61 -42 24 -25 34 -23 167 callsubr
          -38 -21 -36 -38 -49 vvcurveto
          endchar
        </CharString>
        <CharString name="eight.sups">
          -193 428 47 318 49 54 callsubr
          543 -57 callgsubr
        </CharString>
        <CharString name="eight.tnum">
          -63 -12 61 540 61 hstemhm
          41 100 callgsubr
          115 -88 callsubr
        </CharString>
        <CharString name="ellipsis">
          388 -12 126 hstem
          94 119 216 119 216 119 vstem
          94 50 rmoveto
          -30 callsubr
          335 hmoveto
          -30 callsubr
          335 hmoveto
          -30 callsubr
          endchar
        </CharString>
        <CharString name="emacron">
          -61 callsubr
          103 57 hstemhm
          46 80 16 245 -1 72 hintmask 11111010
          -107 callgsubr
          hintmask 11111100
          -244 322 -15 callsubr
        </CharString>
        <CharString name="emdash">
          116 callsubr
        </CharString>
        <CharString name="emdash.sc">
          127 243 57 hstem
          41 605 vstem
          41 243 rmoveto
          605 57 -605 hlineto
          endchar
        </CharString>
        <CharString name="emdash.sups">
          2 616 41 hstem
          41 481 vstem
          41 616 rmoveto
          481 41 -481 hlineto
          endchar
        </CharString>
        <CharString name="endash">
          -80 223 57 hstem
          41 398 vstem
          41 223 rmoveto
          398 57 -398 hlineto
          endchar
        </CharString>
        <CharString name="endash.sc">
          -146 243 57 hstem
          41 330 vstem
          41 243 rmoveto
          330 57 -330 hlineto
          endchar
        </CharString>
        <CharString name="endash.sups">
          -212 616 41 hstem
          41 266 vstem
          41 616 rmoveto
          266 41 -266 hlineto
          endchar
        </CharString>
        <CharString name="eogonek">
          -64 -206 55 139 66 171 54 154 65 hstem
          46 80 142 60 58 72 vstem
          -39 callgsubr
          -159 103 -95 130 16 16 1 6 17 vhcurveto
          -26 -23 -34 -43 -50 vvcurveto
          -56 39 71 callgsubr
          -12 -12 -5 -16 hhcurveto
          -25 -22 15 31 42 24 39 87 62 hvcurveto
          -29 54 rlineto
          -23 -36 -39 -15 -46 hhcurveto
          -93 -63 66 105 -6 hvcurveto
          328 hlineto
          2 12 1 14 19 vvcurveto
          139 -70 89 -124 -111 -107 -97 -159 vhcurveto
          80 37 rmoveto
          98 10 62 56 68 hhcurveto
          77 43 -55 -99 hvcurveto
          endchar
        </CharString>
        <CharString name="equal">
          207 callgsubr
          34 406 rmoveto
          127 callsubr
          -276 vmoveto
          127 callsubr
          endchar
        </CharString>
        <CharString name="estimated">
          240 -12 20 308 18 306 20 hstem
          46 130 450 128 vstem
          184 108 rmoveto
          -4 6 -4 6 8 vvcurveto
          184 vlineto
          2 2 2 2 vhcurveto
          574 hlineto
          2 0 4 2 vvcurveto
          186 -158 150 -196 -196 -158 -150 -186 -186 158 -150 196 114 102 52 80 66 vhcurveto
          -52 hlineto
          -68 -56 -82 -44 -90 hhcurveto
          -86 -78 38 62 -54 hvcurveto
          -4 226 rmoveto
          -2 -2 2 4 hvcurveto
          180 vlineto
          8 4 8 4 6 vhcurveto
          60 56 76 38 86 hhcurveto
          82 76 -36 -58 56 hvcurveto
          6 -6 4 -8 -8 vvcurveto
          -184 vlineto
          -4 -2 -2 -4 vhcurveto
          endchar
        </CharString>
        <CharString name="eth">
          -15 -12 68 327 64 265 -20 hstem
          53 78 275 79 vstem
          271 56 rmoveto
          -76 -64 66 100 92 51 69 89 45 44 -15 -59 44 hvcurveto
          1 -17 1 -19 -19 vvcurveto
          -117 -45 -81 -90 vhcurveto
          207 615 rmoveto
          -24 41 -142 -73 -43 36 -47 29 -48 26 rlinecurve
          -38 -52 41 -22 37 -24 34 -26 rlinecurve
          -127 -65 24 -41 141 73 51 -50 38 -60 18 -82 rlinecurve
          45 -34 -49 21 -51 hhcurveto
          -116 -90 -89 -136 -145 103 -89 113 130 86 109 160 158 -56 109 -80 81 hvcurveto
          endchar
        </CharString>
        <CharString name="exclam">
          -271 -12 126 -105 -21 205 callsubr
          116 198 rmoveto
          57 hlineto
          11 378 2 94 rlineto
          -83 hlineto
          2 -94 rlineto
          hintmask 01100000
          -20 -526 rmoveto
          -36 27 -26 33 32 27 26 36 vhcurveto
          hintmask 10100000
          38 -27 26 -32 vhcurveto
          hintmask 01100000
          -33 -27 -26 -38 hvcurveto
          endchar
        </CharString>
        <CharString name="exclamdown">
          -271 372 126 0 -20 205 callsubr
          173 288 rmoveto
          -57 hlineto
          -11 -378 -2 -94 rlineto
          83 hlineto
          -2 94 rlineto
          hintmask 01100000
          20 526 rmoveto
          36 -27 26 -32 -33 -27 -26 -36 vhcurveto
          hintmask 10100000
          -38 27 -26 33 vhcurveto
          hintmask 01100000
          32 27 26 38 hvcurveto
          endchar
        </CharString>
        <CharString name="f">
          -268 21 -21 211 callsubr
          hstem
          96 82 vstem
          319 708 rmoveto
          206 callsubr
          vlineto
          102 callgsubr
          103 67 -103 77 vlineto
          62 22 32 46 18 19 -4 -8 18 vhcurveto
          endchar
        </CharString>
        <CharString name="f.sups">
          -359 539 49 108 50 hstem
          64 62 vstem
          220 735 rmoveto
          8 -17 -17 3 -22 hhcurveto
          -69 -31 -50 -66 hvcurveto
          -42 vlineto
          -45 -3 rlineto
          -46 45 -273 62 273 68 49 -68 46 vlineto
          38 15 24 29 16 12 -3 -4 9 vhcurveto
          endchar
        </CharString>
        <CharString name="f_f">
          14 21 -21 419 67 161 67 -57 67 -10 -20 hstemhm
          96 82 202 82 hintmask 11010110
          603 708 rmoveto
          206 callsubr
          -202 vlineto
          hintmask 11100110
          62 vlineto
          64 28 35 48 24 20 -4 -9 21 vhcurveto
          hintmask 11001110
          17 62 rlineto
          hintmask 11100110
          11 -24 -33 7 -32 hhcurveto
          -101 -50 -63 -101 hvcurveto
          -64 vlineto
          102 callgsubr
          202 -419 82 419 103 67 -103 vlineto
          hintmask 11010110
          77 vlineto
          62 23 32 46 17 19 -4 -8 19 vhcurveto
          endchar
        </CharString>
        <CharString name="f_t">
          34 -12 67 -34 -21 211 callsubr
          hstemhm
          96 82 174 82 hintmask 10111100
          565 68 rmoveto
          -6 -16 -22 -7 -17 hhcurveto
          -56 -20 34 60 hvcurveto
          270 132 67 -132 136 -68 vlineto
          -10 -136 rlineto
          -178 77 hlineto
          62 22 32 46 18 19 -4 -8 18 vhcurveto
          18 63 rlineto
          206 callsubr
          vlineto
          -66 -5 rlineto
          -62 66 vlineto
          hintmask 01111100
          -419 82 419 174 -269 vlineto
          hintmask 10111100
          -96 35 -66 104 30 33 9 9 27 vhcurveto
          endchar
        </CharString>
        <CharString name="fi">
          -4 21 -21 419 67 100 106 -35 67 hstemhm
          96 82 199 113 -98 82 hintmask 11011010
          -40 callsubr
          296 -563 rmoveto
          82 188 callgsubr
          hintmask 11101100
          42 206 rmoveto
          -32 -25 -21 -32 -31 25 -22 32 32 24 22 31 32 -24 21 -32 hvcurveto
          endchar
        </CharString>
        <CharString name="figuredash">
          -63 223 57 hstem
          41 416 vstem
          41 223 rmoveto
          416 57 -416 hlineto
          endchar
        </CharString>
        <CharString name="five">
          -33 callgsubr
        </CharString>
        <CharString name="five.dnom">
          -193 -12 121 callsubr
          64 -5 callgsubr
        </CharString>
        <CharString name="five.numr">
          -193 254 121 callsubr
          331 rmoveto
          -44 31 48 -33 69 hhcurveto
          79 61 55 80 84 -58 47 -24 callsubr
          22 36 -25 hvcurveto
          endchar
        </CharString>
        <CharString name="five.onum">
          -44 callgsubr
        </CharString>
        <CharString name="five.pnum">
          -33 callgsubr
        </CharString>
        <CharString name="five.sc">
          -95 -12 66 217 58 121 68 hstem
          85 72 175 82 vstem
          31 60 rmoveto
          -37 40 56 -35 91 hhcurveto
          102 94 64 114 111 -81 52 -97 -33 -27 -10 -12 -25 hvcurveto
          12 143 rlineto
          223 68 -292 hlineto
          -18 -255 42 -25 rlineto
          21 33 25 12 41 hhcurveto
          68 47 -41 -66 -68 -52 -42 -67 -67 -43 29 30 -34 hvcurveto
          endchar
        </CharString>
        <CharString name="five.subs">
          -193 -220 121 callsubr
          -143 rmoveto
          -44 31 48 -33 184 callgsubr
          85 -58 46 -24 callsubr
          23 35 -25 hvcurveto
          endchar
        </CharString>
        <CharString name="five.sups">
          -193 428 121 callsubr
          504 -5 callgsubr
        </CharString>
        <CharString name="five.tnum">
          -44 callgsubr
        </CharString>
        <CharString name="fiveeighths">
          261 -12 47 219 51 48 49 75 43 80 56 hstemhm
          259 64 175 197 callsubr
          hintmask 1111110101000000
          35 331 rmoveto
          -44 31 48 -33 69 hhcurveto
          79 61 55 80 84 -58 47 -24 callsubr
          22 36 -25 hvcurveto
          178 -375 -65 callsubr
          hintmask 1111111001000000
          358 -14 callgsubr
          hintmask 1111110110000000
          18 callgsubr
          hintmask 1111111001000000
          -161 8 callsubr
          hintmask 1111110110000000
          26 161 callgsubr
          -54 40 -70 -68 24 callsubr
          hintmask 1111111001000000
          102 callsubr
        </CharString>
        <CharString name="fl">
          -13 -12 68 -35 -21 211 callsubr
          -12 -20 hstemhm
          96 82 196 82 hintmask 01110110
          -40 callsubr
          hintmask 10101110
          401 -505 rmoveto
          -2 -9 -4 0 -5 hhcurveto
          -12 -11 10 26 hvcurveto
          620 -82 -614 vlineto
          -71 25 -39 62 21 14 3 5 12 vhcurveto
          endchar
        </CharString>
        <CharString name="fl.a">
          -4 211 callsubr
          hstem
          96 82 214 82 vstem
          -40 callsubr
          296 149 rmoveto
          -712 82 712 vlineto
          endchar
        </CharString>
        <CharString name="four">
          -63 21 -21 176 66 308 88 hstem
          304 78 vstem
          104 152 callgsubr
          -3 -55 -34 vvcurveto
          -185 vlineto
          165 hmoveto
          -87 396 -92 219 callgsubr
          78 176 87 vlineto
          endchar
        </CharString>
        <CharString name="four.dnom">
          -193 104 86 callgsubr
          150 rmoveto
          61 98 50 81 rlineto
          4 hlineto
          -4 -109 rlineto
          -70 -12 callsubr
        </CharString>
        <CharString name="four.numr">
          -193 370 86 callgsubr
          416 rmoveto
          61 98 50 81 rlineto
          4 hlineto
          -4 -108 rlineto
          -71 -12 callsubr
        </CharString>
        <CharString name="four.onum">
          -42 94 66 323 91 hstem
          312 78 vstem
          112 10 callsubr
        </CharString>
        <CharString name="four.pnum">
          -41 21 -21 176 66 308 88 hstem
          321 77 vstem
          120 152 callgsubr
          -2 -55 -34 vvcurveto
          -185 vlineto
          164 hmoveto
          -87 396 -91 219 callgsubr
          77 176 87 vlineto
          endchar
        </CharString>
        <CharString name="four.sc">
          -79 0 201 -63 63 236 81 hstemhm
          293 77 hintmask 01110000
          120 201 rmoveto
          126 165 19 28 11 16 17 27 rlinecurve
          3 hlineto
          -1 -29 -2 -45 -29 vvcurveto
          -133 vlineto
          154 hmoveto
          -77 317 -93 hlineto
          -241 -326 rlineto
          -54 257 vlineto
          hintmask 10110000
          -138 77 vlineto
          hintmask 01110000
          138 77 vlineto
          endchar
        </CharString>
        <CharString name="four.subs">
          -193 -104 86 callgsubr
          -58 rmoveto
          61 98 50 81 rlineto
          4 hlineto
          -4 -108 rlineto
          -71 -12 callsubr
        </CharString>
        <CharString name="four.sups">
          -193 544 86 callgsubr
          590 rmoveto
          61 98 50 81 rlineto
          4 hlineto
          -4 -109 rlineto
          -70 -12 callsubr
        </CharString>
        <CharString name="four.tnum">
          -63 94 66 323 91 hstem
          304 78 vstem
          104 10 callsubr
        </CharString>
        <CharString name="fraction">
          2 callgsubr
        </CharString>
        <CharString name="g">
          -62 callgsubr
          67 callgsubr
          207 75 -12 80 hintmask 1011101001000000
          7 callgsubr
          hintmask 1101100100100000
          -62 callsubr
          hintmask 1011101001000000
          -41 callgsubr
          hintmask 1101100010100000
          -87 callsubr
          hintmask 1101100101000000
          -48 callsubr
          hintmask 1101010101000000
          -66 callsubr
          hintmask 1101100011000000
          -41 callsubr
          hintmask 1011101001000000
          104 callsubr
          hintmask 1101010101000000
          -77 callgsubr
          endchar
        </CharString>
        <CharString name="g.a">
          -37 callsubr
          hstemhm
          50 84 259 82 hintmask 11101100
          -79 callsubr
          hintmask 11011100
          510 -69 vlineto
          hintmask 11101100
          -102 callsubr
          endchar
        </CharString>
        <CharString name="g.supa">
          -183 121 51 102 52 218 52 hstem
          34 64 164 61 vstem
          79 200 rmoveto
          -23 -43 rlineto
          -23 35 43 -13 39 hhcurveto
          95 55 51 84 hvcurveto
          332 -49 vlineto
          -6 -31 rlineto
          -3 hlineto
          26 -26 -29 13 -35 hhcurveto
          -73 -68 -63 -100 -96 53 -63 85 35 28 17 25 29 hvcurveto
          -2 -44 rlineto
          -13 vlineto
          -51 -31 -36 -57 -31 -34 9 19 -30 vhcurveto
          106 126 rmoveto
          -59 -28 43 66 65 39 44 47 24 28 -9 -23 26 hvcurveto
          -145 vlineto
          -28 -28 -23 -13 -26 hhcurveto
          endchar
        </CharString>
        <CharString name="g.sups">
          -217 120 43 96 52 56 42 130 48 -36 45 hstemhm
          30 53 -43 59 133 56 -16 60 hintmask 1111010010000000
          83 215 rmoveto
          18 11 16 20 14 vhcurveto
          -4 14 17 0 11 hhcurveto
          53 hlineto
          40 23 -9 -27 -31 -40 -29 -58 -57 -34 19 33 hvcurveto
          -53 -9 rmoveto
          -56 54 -30 80 104 64 51 61 55 -37 24 -78 vhcurveto
          hintmask 1111001100000000
          -62 hlineto
          -42 -14 11 20 16 8 10 11 9 hvcurveto
          -8 16 17 -2 15 hhcurveto
          67 55 42 70 23 -10 24 -13 13 hvcurveto
          62 48 -110 hlineto
          6 -15 -16 3 -20 hhcurveto
          -68 -58 -43 -72 -38 21 -31 22 -17 hvcurveto
          -4 vlineto
          -18 -12 -18 -21 -25 vvcurveto
          -25 12 -18 17 -10 vhcurveto
          -4 vlineto
          hintmask 1111010010000000
          -30 -18 -16 -24 -28 vvcurveto
          hintmask 1110101100000000
          136 203 rmoveto
          -39 -28 28 44 45 28 25 39 36 30 -26 -44 -44 -30 -28 -36 hvcurveto
          endchar
        </CharString>
        <CharString name="gbreve">
          -62 callgsubr
          77 51 67 callgsubr
          -29 51 151 51 -17 75 -12 80 hintmask 1011101100001000
          7 callgsubr
          hintmask 1101101010000100
          -62 callsubr
          hintmask 1011101100001000
          -41 callgsubr
          hintmask 1101101001000100
          -87 callsubr
          hintmask 1101101010001000
          -48 callsubr
          hintmask 1101011010001000
          -66 callsubr
          hintmask 1101101001001000
          -41 callsubr
          hintmask 1011101100001000
          104 callsubr
          hintmask 1101011010001000
          -77 callgsubr
          hintmask 1101101000110000
          -6 366 rmoveto
          85 36 -23 callgsubr
          endchar
        </CharString>
        <CharString name="gbreve.a">
          -37 callsubr
          109 51 hstemhm
          50 84 27 51 151 51 -21 82 hintmask 1110110010000000
          -79 callsubr
          hintmask 1101110010000000
          510 -69 vlineto
          hintmask 1110110010000000
          -102 callsubr
          hintmask 1110111100000000
          20 502 rmoveto
          86 35 -23 callgsubr
          endchar
        </CharString>
        <CharString name="gcaron">
          -62 callgsubr
          75 49 -49 141 67 callgsubr
          207 75 -12 80 hintmask 1011100110010000
          7 callgsubr
          hintmask 1101100101001000
          -62 callsubr
          hintmask 1011100110010000
          -41 callgsubr
          hintmask 1101100100101000
          -87 callsubr
          hintmask 1101100101010000
          -48 callsubr
          hintmask 1101010101010000
          -66 callsubr
          hintmask 1101100100110000
          -41 callsubr
          hintmask 1011100110010000
          104 callsubr
          hintmask 1101010101010000
          -77 callgsubr
          -40 364 87 callsubr
          hintmask 1101101001010000
          90 callsubr
          hintmask 1101100101010000
          82 callgsubr
        </CharString>
        <CharString name="gcaron.a">
          -37 callsubr
          107 92 callgsubr
          50 84 259 82 hintmask 11100111
          -79 callsubr
          hintmask 11010111
          510 -69 vlineto
          hintmask 11100111
          -102 callsubr
          -14 500 176 callgsubr
          hintmask 11101011
          90 callsubr
          hintmask 11100111
          82 callgsubr
        </CharString>
        <CharString name="gcircumflex">
          -62 callgsubr
          75 141 -50 50 67 callgsubr
          207 75 -12 80 hintmask 1011101010010000
          7 callgsubr
          hintmask 1101101001001000
          -62 callsubr
          hintmask 1011101010010000
          -41 callgsubr
          hintmask 1101101000101000
          -87 callsubr
          hintmask 1101101001010000
          -48 callsubr
          hintmask 1101011001010000
          -66 callsubr
          hintmask 1101101000110000
          -41 callsubr
          hintmask 1011101010010000
          104 callsubr
          hintmask 1101011001010000
          -77 callgsubr
          -135 364 rmoveto
          60 hlineto
          hintmask 1101100101010000
          52 callsubr
          hintmask 1101101001010000
          85 callgsubr
          endchar
        </CharString>
        <CharString name="gcircumflex.a">
          -37 callsubr
          107 141 -50 50 hstemhm
          50 84 259 82 hintmask 11101011
          -79 callsubr
          hintmask 11011011
          510 -69 vlineto
          hintmask 11101011
          -102 callsubr
          -109 500 rmoveto
          60 hlineto
          hintmask 11100111
          52 callsubr
          hintmask 11101011
          117 callsubr
        </CharString>
        <CharString name="gdotaccent">
          -62 callgsubr
          88 108 67 callgsubr
          43 109 55 75 -12 80 hintmask 1011100100110000
          7 callgsubr
          hintmask 1101100010101000
          -62 callsubr
          hintmask 1011100100110000
          -41 callgsubr
          hintmask 1101100001101000
          -87 callsubr
          hintmask 1101100010110000
          -48 callsubr
          hintmask 1101010010110000
          -66 callsubr
          hintmask 1101100001110000
          -41 callsubr
          hintmask 1011100100110000
          104 callsubr
          hintmask 1101011010110000
          -77 callgsubr
          -6 377 101 callsubr
          -23 -23 -31 -32 23 -29 callsubr
        </CharString>
        <CharString name="gdotaccent.a">
          -37 callsubr
          120 108 hstemhm
          50 84 100 108 51 82 hintmask 11100101
          -79 callsubr
          hintmask 11010101
          510 -69 vlineto
          hintmask 11100101
          -102 callsubr
          hintmask 11101111
          20 513 101 callsubr
          -22 -23 -31 -32 22 -29 callsubr
        </CharString>
        <CharString name="germandbls">
          16 -12 64 -31 -21 655 67 hstemhm
          82 82 108 78 10 81 28 78 hintmask 01111110
          82 hmoveto
          82 500 hlineto
          103 42 52 71 55 28 -37 -50 vhcurveto
          -84 -88 -30 -90 vvcurveto
          hintmask 10111010
          -139 197 23 -116 vvcurveto
          -42 -29 -38 -55 -38 -33 14 29 -35 vhcurveto
          -33 -58 rlineto
          -30 41 45 -19 55 hhcurveto
          99 61 65 84 hvcurveto
          162 -197 -22 97 69 91 33 100 vvcurveto
          hintmask 10111110
          79 -58 67 -105 -125 -71 -82 -125 vhcurveto
          endchar
        </CharString>
        <CharString name="germandbls.sc">
          378 232 callgsubr
          hstem
          72 83 197 84 100 83 197 84 vstem
          -101 callsubr
          420 -57 rmoveto
          -44 48 70 -31 83 hhcurveto
          119 74 65 86 87 -54 29 -77 29 hvcurveto
          -65 26 rlineto
          -53 21 -32 19 41 vvcurveto
          46 37 27 59 51 44 -21 -30 35 vhcurveto
          43 54 rlineto
          33 -38 -58 30 -76 hhcurveto
          -105 -75 -57 -86 -75 59 -39 71 -27 hvcurveto
          65 -26 rlineto
          48 -20 37 -17 -50 vvcurveto
          -47 -39 -32 -67 -61 -55 26 40 -44 vhcurveto
          endchar
        </CharString>
        <CharString name="grave">
          -18 131 callgsubr
          160 176 vstem
          273 573 5 callsubr
        </CharString>
        <CharString name="greater">
          -63 131 402 hstem
          379 84 vstem
          463 365 rmoveto
          -429 168 rlineto
          -71 vlineto
          211 -78 134 -50 rlineto
          -4 vlineto
          -134 -50 -211 -78 rlineto
          -71 vlineto
          429 168 rlineto
          endchar
        </CharString>
        <CharString name="greaterequal">
          -63 0 62 hstem
          379 84 vstem
          34 hmoveto
          127 callsubr
          429 318 rmoveto
          -429 153 rlineto
          -71 vlineto
          210 -73 135 -44 rlineto
          -4 vlineto
          -135 -44 -210 -73 rlineto
          -71 vlineto
          429 153 rlineto
          endchar
        </CharString>
        <CharString name="guillemotleft">
          -131 66 372 hstem
          45 54 104 93 callsubr
          295 -155 rmoveto
          35 28 -118 158 118 156 -35 30 -137 -155 rlineto
          -62 vlineto
          endchar
        </CharString>
        <CharString name="guillemotright">
          -131 66 372 hstem
          172 54 104 94 callgsubr
          40 -158 rmoveto
          36 -28 136 155 rlineto
          62 vlineto
          -136 155 -36 -30 118 -156 rlineto
          endchar
        </CharString>
        <CharString name="guilsinglleft">
          -289 66 372 hstem
          45 93 callsubr
          endchar
        </CharString>
        <CharString name="guilsinglright">
          -289 66 372 hstem
          172 94 callgsubr
          endchar
        </CharString>
        <CharString name="h">
          -16 21 246 callgsubr
          214 -20 hstem
          82 82 225 82 vstem
          -95 callsubr
          -49 -36 -44 -46 vhcurveto
          3 100 rlineto
          194 -82 vlineto
          endchar
        </CharString>
        <CharString name="h.sups">
          -194 115 callsubr
          26 hhcurveto
          50 11 166 callsubr
          -27 51 -75 -43 -38 -25 -28 -27 vhcurveto
          3 66 rlineto
          126 -62 vlineto
          endchar
        </CharString>
        <CharString name="hbar">
          -16 21 -21 407 71 93 48 -48 237 callsubr
          164 498 rmoveto
          73 182 vlineto
          hintmask 11101100
          48 -182 vlineto
          hintmask 11011100
          93 -82 vlineto
          hintmask 11101100
          -93 vlineto
          -74 -5 rlineto
          hintmask 11011100
          -43 74 -571 82 332 vlineto
          49 49 34 26 50 hhcurveto
          64 28 -39 -91 hvcurveto
          -277 82 288 vlineto
          124 -46 66 -102 -67 -49 -36 -44 -46 vhcurveto
          endchar
        </CharString>
        <CharString name="hcircumflex">
          -16 21 246 callgsubr
          214 -20 57 111 hstem
          82 82 225 82 vstem
          -95 callsubr
          -49 -36 -44 -46 vhcurveto
          3 100 rlineto
          194 -82 vlineto
          -27 37 -3 callsubr
          endchar
        </CharString>
        <CharString name="hungarumlaut">
          -18 571 143 hstem
          173 290 vstem
          173 571 42 callgsubr
          76 -143 42 callgsubr
          endchar
        </CharString>
</ttFont>
